<?xml version="1.0" encoding="UTF-8"?>
<!DOCTYPE svg PUBLIC "-//W3C//DTD SVG 1.1//EN" "http://www.w3.org/Graphics/SVG/1.1/DTD/svg11.dtd">
<svg xmlns="http://www.w3.org/2000/svg" version="1.1" width="8667px" height="4346px" style="shape-rendering:geometricPrecision; text-rendering:geometricPrecision; image-rendering:optimizeQuality; fill-rule:evenodd; clip-rule:evenodd" xmlns:xlink="http://www.w3.org/1999/xlink">
<g><path style="opacity:1" fill="#000000" d="M 4987.5,1.5 C 5287.52,-6.35574 5548.86,88.8109 5771.5,287C 5988.64,490.153 6106.8,740.987 6126,1039.5C 6137.13,1319.1 6056.13,1567.76 5883,1785.5C 5704.95,2000.17 5477.45,2130.67 5200.5,2177C 4927.13,2216 4673.8,2162.33 4440.5,2016C 4216.4,1868.15 4064.23,1665.65 3984,1408.5C 3926.46,1209.91 3923.8,1010.58 3976,810.5C 4052.06,541.353 4206.22,329.853 4438.5,176C 4605.74,68.9783 4788.74,10.8116 4987.5,1.5 Z"/></g>
<g><path style="opacity:1" fill="#000000" d="M 1887.5,1221.5 C 1978.03,1223.15 2043.53,1264.15 2084,1344.5C 2111.38,1410.14 2108.04,1474.14 2074,1536.5C 2025.8,1611.52 1956.96,1645.35 1867.5,1638C 1792.47,1626.61 1737.97,1587.11 1704,1519.5C 1674.92,1451.66 1678.59,1385.66 1715,1321.5C 1755.64,1259.42 1813.14,1226.09 1887.5,1221.5 Z"/></g>
<g><path style="opacity:1" fill="#000000" d="M 7513.5,1638.5 C 7599.34,1636.65 7664.51,1671.99 7709,1744.5C 7738.11,1798.89 7743.44,1855.56 7725,1914.5C 7694.2,1995.29 7636.04,2042.13 7550.5,2055C 7486.03,2061.07 7430.03,2042.4 7382.5,1999C 7324.93,1939.89 7306.09,1870.06 7326,1789.5C 7348.74,1717.76 7395.9,1670.26 7467.5,1647C 7482.71,1642.74 7498.05,1639.91 7513.5,1638.5 Z"/></g>
<g><path style="opacity:1" fill="#000000" d="M 1214.5,2034.5 C 1302.66,2030.25 1375.82,2060.92 1434,2126.5C 1705.28,2476.12 1976.95,2825.45 2249,3174.5C 2298.72,3246.88 2310.72,3325.21 2285,3409.5C 2267.81,3459 2238.65,3499.83 2197.5,3532C 1869.21,3786.62 1541.21,4041.62 1213.5,4297C 1144.47,4343.17 1069.81,4355.17 989.5,4333C 936.025,4316.19 892.192,4285.69 858,4241.5C 588.242,3894.32 318.242,3547.32 48,3200.5C -3.04705,3123.05 -12.3804,3040.71 20,2953.5C 36.6637,2913.67 61.497,2879.84 94.5,2852C 423.453,2596.72 752.119,2341.05 1080.5,2085C 1120.63,2056.1 1165.29,2039.27 1214.5,2034.5 Z"/></g>
<g><path style="opacity:1" fill="#000000" d="M 6317.5,2392.5 C 6448.31,2389.95 6566.98,2426.11 6673.5,2501C 7337.33,3027.34 8001,3553.84 8664.5,4080.5C 8046.17,4081.67 7427.83,4081.83 6809.5,4081C 6556.5,3880.67 6303.5,3680.33 6050.5,3480C 6025.95,3464.11 6001.95,3447.45 5978.5,3430C 5852.55,3328.99 5779.38,3197.82 5759,3036.5C 5743.2,2866.26 5790.53,2716.59 5901,2587.5C 6012.75,2465.55 6151.59,2400.55 6317.5,2392.5 Z"/></g>
<g><path style="opacity:1" fill="#000000" d="M 4878.5,3292.5 C 4954.18,3291.26 5014.68,3320.6 5060,3380.5C 5100.39,3441.28 5108.72,3506.28 5085,3575.5C 5050.99,3655.82 4990.49,3700.65 4903.5,3710C 4827.31,3713.15 4766.15,3684.65 4720,3624.5C 4678.89,3564.08 4669.89,3499.08 4693,3429.5C 4727.46,3346.88 4789.29,3301.22 4878.5,3292.5 Z"/></g>
</svg>
