<?xml version="1.0" encoding="UTF-8"?>
<svg version="1.1" xmlns="http://www.w3.org/2000/svg" width="3902" height="1244">
<path d="M0 0 C1.00518173 -0.00839905 1.00518173 -0.00839905 2.03067017 -0.01696777 C4.2237953 -0.02895775 6.41624949 -0.02256169 8.609375 -0.01171875 C9.35656799 -0.00989594 10.10376099 -0.00807312 10.87359619 -0.00619507 C45.17816268 0.13505741 82.12349832 7.2586541 107.359375 32.30078125 C108.225625 33.12578125 109.091875 33.95078125 109.984375 34.80078125 C110.768125 35.62578125 111.551875 36.45078125 112.359375 37.30078125 C113.22949219 38.16123047 113.22949219 38.16123047 114.1171875 39.0390625 C139.14885266 65.10144329 141.64956654 102.94597492 141.67822266 137.00610352 C141.68753781 139.5603059 141.6977088 142.11450529 141.70866394 144.66870117 C141.73020248 150.13378055 141.74588303 155.59882477 141.75603104 161.06393623 C141.77071316 168.96523227 141.79627557 176.86646479 141.82436232 184.7677232 C141.86965872 197.59179527 141.90634377 210.41587658 141.9375 223.23999023 C141.96775625 235.68597023 142.0021386 248.13192774 142.04199219 260.57788086 C142.04568451 261.73162919 142.04568451 261.73162919 142.04945143 262.90868557 C142.0618274 266.76795946 142.07428367 270.62723308 142.08677983 274.48650658 C142.19009035 306.42456769 142.27923235 338.36265334 142.359375 370.30078125 C142.81973145 369.23569336 143.28008789 368.17060547 143.75439453 367.07324219 C144.375214 365.64383177 144.99615132 364.21447253 145.6171875 362.78515625 C146.06928589 361.73787354 146.06928589 361.73787354 146.53051758 360.66943359 C151.82140129 348.51375123 157.95074193 337.6150158 166.359375 327.30078125 C166.80265137 326.75067383 167.24592773 326.20056641 167.70263672 325.63378906 C201.94004205 283.37627452 253.63000402 259.91265922 307.109375 253.98828125 C348.8624628 250.06816597 393.2366266 254.85727331 430.359375 275.30078125 C431.41382813 275.86539062 432.46828125 276.43 433.5546875 277.01171875 C450.15269753 286.24246584 464.91720701 299.18656998 476.359375 314.30078125 C477.14828125 315.31269531 477.9371875 316.32460938 478.75 317.3671875 C511.64200125 360.58998344 520.59788068 420.47860288 520.47962952 473.39831543 C520.48006703 474.84343023 520.48094524 476.28854496 520.48221868 477.73365927 C520.48442822 481.65386621 520.48049163 485.57404523 520.47544062 489.49424863 C520.47108474 493.74076913 520.47258616 497.98728831 520.4733429 502.23381042 C520.4738649 509.57435981 520.47075205 516.91490025 520.46510506 524.25544739 C520.456946 534.86838611 520.45437034 545.48132054 520.45311707 556.09426206 C520.45093344 573.31691283 520.44429212 590.53955884 520.43481445 607.76220703 C520.42562245 624.48323544 520.41855038 641.20426254 520.41430664 657.92529297 C520.41404392 658.95757686 520.41378119 659.98986075 520.41351051 661.05342597 C520.41220538 666.23256853 520.4109417 671.41171111 520.40969861 676.59085369 C520.39934748 719.49416711 520.38092079 762.39747171 520.359375 805.30078125 C482.739375 805.30078125 445.119375 805.30078125 406.359375 805.30078125 C406.37508545 794.59205566 406.3907959 783.88333008 406.40698242 772.85009766 C406.45523344 738.50248256 406.48854563 704.1548673 406.51257099 669.80722705 C406.51632266 664.46311873 406.52020567 659.11901051 406.52416992 653.77490234 C406.52495685 652.71108233 406.52574378 651.64726231 406.52655456 650.55120532 C406.5395732 633.37426004 406.56320732 616.19734518 406.59083339 599.02041788 C406.61898653 581.36724051 406.6355721 563.71407896 406.64164048 546.06088006 C406.64573648 535.18669638 406.65862602 524.31259873 406.6831244 513.43844156 C406.69910423 505.9599623 406.70374798 498.48152686 406.69987913 491.00303181 C406.69797642 486.70213607 406.70068447 482.40138959 406.71699142 478.10052109 C406.89042847 429.88964353 401.76691336 376.96565209 368.359375 339.30078125 C367.63363281 338.47578125 366.90789062 337.65078125 366.16015625 336.80078125 C346.4390897 315.80386011 317.80721658 305.98862289 289.53515625 305.08203125 C276.54729008 304.8179323 264.05040891 305.45712345 251.359375 308.30078125 C250.65973633 308.45643555 249.96009766 308.61208984 249.23925781 308.77246094 C214.58669821 316.881257 185.97738373 339.47369237 167.359375 369.30078125 C148.72686563 400.19993486 142.22761248 436.27631468 142.20115662 471.95526123 C142.19658012 473.40104978 142.19157855 474.84683704 142.18619305 476.2926228 C142.17272621 480.23325547 142.16522719 484.1738796 142.15876639 488.11452913 C142.15071156 492.3761268 142.13703154 496.63770699 142.12405396 500.89929199 C142.10236283 508.27209674 142.08419167 515.64490332 142.06844902 523.01772308 C142.04568298 533.67742637 142.01754971 544.33711024 141.98812974 554.996797 C141.9405361 572.29375451 141.89724978 589.59071998 141.85668945 606.88769531 C141.81729256 623.68457661 141.77585636 640.48145085 141.73168945 657.27832031 C141.72760304 658.83280298 141.72760304 658.83280298 141.72343408 660.41868934 C141.70975391 665.61789861 141.69603378 670.81710778 141.68229377 676.01631689 C141.56845833 719.11112446 141.46241721 762.20594626 141.359375 805.30078125 C103.739375 805.30078125 66.119375 805.30078125 27.359375 805.30078125 C27.35128815 796.39206024 27.34320129 787.48333923 27.33486938 778.30465698 C27.32931454 772.25988258 27.3237506 766.2151082 27.31813049 760.17033386 C27.31740046 759.38506722 27.31667042 758.59980057 27.31591826 757.79073796 C27.26752187 705.7720372 27.21676713 653.75333992 27.15805054 601.73464966 C27.15691691 600.72972457 27.15578329 599.72479948 27.15461531 598.68942212 C27.12996156 576.84757931 27.10486858 555.00573703 27.07932339 533.16389524 C27.06679798 522.45203703 27.05436958 511.7401787 27.04199219 501.02832031 C27.04075886 499.96238449 27.03952554 498.89644866 27.03825484 497.79821175 C26.99835365 463.27319728 26.96485391 428.74818023 26.93468809 394.223156 C26.90364447 358.73229434 26.86611419 323.24144528 26.82046888 287.75059925 C26.81401886 282.73313808 26.80764269 277.71567681 26.80131149 272.69821548 C26.79943904 271.21701155 26.79943904 271.21701155 26.79752875 269.70588431 C26.77765671 253.83612038 26.7645848 237.96635785 26.75408172 222.09658525 C26.74336621 206.12651475 26.72542505 190.15646513 26.70020796 174.18641083 C26.68545892 164.70845174 26.67615033 155.2305246 26.67480817 145.75255393 C26.67336156 139.40671944 26.66464002 133.06092078 26.65021908 126.71510261 C26.64222533 123.10868483 26.63718868 119.50233727 26.64109619 115.89591108 C26.67441297 80.16038142 26.50648213 37.09680505 0.359375 9.30078125 C-2.52866074 6.79452317 -5.50736593 4.49116144 -8.640625 2.30078125 C-5.81613451 -0.52370924 -3.95480142 0.02767223 0 0 Z " fill="#133D33" transform="translate(653.640625,-0.30078125)"/>
<path d="M0 0 C1.12453583 -0.00101212 1.12453583 -0.00101212 2.27178955 -0.00204468 C38.18360766 0.04935537 75.52309671 8.03551738 101.84765625 34.12890625 C125.99116556 59.0852757 133.13187709 92.69683837 133.0909729 126.40330505 C133.09598554 128.30128705 133.10186414 130.19926692 133.10852563 132.09724385 C133.12422254 137.27388394 133.12775059 142.45046961 133.12917423 147.62713063 C133.13288641 153.22407182 133.14805085 158.82098378 133.16178894 164.41790771 C133.18400871 174.10209786 133.1990537 183.78627752 133.20915604 193.47048759 C133.22377261 207.47204103 133.24931774 221.47355796 133.27748732 235.47508992 C133.32290129 258.19440354 133.35955533 280.91372002 133.390625 303.63305664 C133.4208183 325.6962171 133.4551704 347.75936472 133.49511719 369.82250977 C133.49634819 370.50332042 133.49757919 371.18413108 133.4988475 371.88557237 C133.511215 378.72293198 133.52366667 385.56029143 133.53617998 392.39765078 C133.64100993 449.68174905 133.73166425 506.96586313 133.8125 564.25 C135.39580832 562.82830604 136.97864195 561.40608343 138.5612793 559.98364258 C139.44277145 559.19169998 140.32426361 558.39975739 141.23246765 557.58381653 C144.73862009 554.41226075 148.18660968 551.18212857 151.625 547.9375 C156.49986113 543.35182555 161.38676516 538.7809976 166.3125 534.25 C171.17243399 529.77807259 175.99866359 525.27150048 180.8125 520.75 C186.16789115 515.72014135 191.54388876 510.7144039 196.94921875 505.73828125 C201.0870102 501.92662115 205.20265142 498.09175806 209.3125 494.25 C214.49022492 489.41036909 219.6857026 484.59094145 224.8984375 479.7890625 C229.05221157 475.95948543 233.18504137 472.10791031 237.3125 468.25 C242.49024651 463.41039204 247.68570243 458.59094161 252.8984375 453.7890625 C257.05221157 449.95948543 261.18504137 446.10791031 265.3125 442.25 C270.49024651 437.41039204 275.68570243 432.59094161 280.8984375 427.7890625 C285.05221157 423.95948543 289.18504137 420.10791031 293.3125 416.25 C297.96510457 411.90123899 302.62850097 407.56493047 307.3125 403.25 C314.51095129 396.61734654 321.66187058 389.93412556 328.8125 383.25 C336.48845514 376.07482073 344.17090122 368.90768087 351.89892578 361.78857422 C356.05258006 357.95920646 360.18520949 354.10775317 364.3125 350.25 C369.49024651 345.41039204 374.68570243 340.59094161 379.8984375 335.7890625 C384.05221157 331.95948543 388.18504137 328.10791031 392.3125 324.25 C397.49024651 319.41039204 402.68570243 314.59094161 407.8984375 309.7890625 C412.05221157 305.95948543 416.18504137 302.10791031 420.3125 298.25 C425.49024651 293.41039204 430.68570243 288.59094161 435.8984375 283.7890625 C440.68401397 279.37699444 445.44078698 274.93445976 450.19580078 270.48950195 C455.06787889 265.93787181 459.96052866 261.40901843 464.86523438 256.89257812 C467.37091289 254.60495524 467.37091289 254.60495524 469.8125 252.25 C472.10401417 252.16209025 474.39822524 252.14305962 476.69140625 252.15234375 C477.72139992 252.15446617 477.72139992 252.15446617 478.77220154 252.15663147 C480.97317801 252.16224521 483.17405409 252.17479993 485.375 252.1875 C486.86393083 252.19251324 488.35286324 252.19707645 489.84179688 252.20117188 C493.49873075 252.21221907 497.15560558 252.22949287 500.8125 252.25 C495.58315379 258.41827585 490.23344927 264.2029942 484.09765625 269.48828125 C479.83688597 273.19905334 475.72314596 277.04888045 471.625 280.9375 C466.50398278 285.77742457 461.37350543 290.60471945 456.1875 295.375 C451.5438222 299.64689312 446.92179858 303.94102732 442.3125 308.25 C437.13479666 313.08965385 431.93929723 317.90905871 426.7265625 322.7109375 C422.57278843 326.54051457 418.43995863 330.39208969 414.3125 334.25 C409.13475349 339.08960796 403.93929757 343.90905839 398.7265625 348.7109375 C394.57278843 352.54051457 390.43995863 356.39208969 386.3125 360.25 C381.65989543 364.59876101 376.99649903 368.93506953 372.3125 373.25 C365.11404871 379.88265346 357.96312942 386.56587444 350.8125 393.25 C323.29899842 418.96853308 323.29899842 418.96853308 314.8125 426.25 C316.325613 432.00721042 319.28926944 436.37064413 322.5625 441.25 C323.74712039 443.04359319 324.93067757 444.83788896 326.11328125 446.6328125 C326.72510254 447.55868164 327.33692383 448.48455078 327.96728516 449.43847656 C330.94187459 453.97080945 333.84679067 458.54673628 336.75 463.125 C337.33185059 464.04112061 337.91370117 464.95724121 338.51318359 465.90112305 C339.69420113 467.76084328 340.87486542 469.6207879 342.05517578 471.48095703 C344.92952115 476.01010752 347.80812546 480.53654557 350.6875 485.0625 C351.54589478 486.41190674 351.54589478 486.41190674 352.42163086 487.78857422 C356.87351597 494.78324553 361.34094478 501.76789086 365.8125 508.75 C372.59278179 519.33706986 379.34992103 529.93864146 386.09472656 540.54833984 C388.99923564 545.11646057 391.90599229 549.68315077 394.8125 554.25 C395.9791772 556.08332663 397.14584387 557.91665996 398.3125 559.75 C399.17875 561.11125 399.17875 561.11125 400.0625 562.5 C433.31249999 614.74999999 433.31249999 614.74999999 435.06201172 617.49926758 C436.23026388 619.33506912 437.39855824 621.1708438 438.56689453 623.0065918 C441.45964755 627.55194376 444.3516977 632.09773967 447.2421875 636.64453125 C453.41716368 646.35608469 459.6058621 656.0586463 465.8125 665.75 C472.59278179 676.33706986 479.34992103 686.93864146 486.09472656 697.54833984 C488.99923564 702.11646057 491.90599229 706.68315077 494.8125 711.25 C495.9791772 713.08332663 497.14584387 714.91665996 498.3125 716.75 C499.17875 718.11125 499.17875 718.11125 500.0625 719.5 C506.47916667 729.58333333 512.89583333 739.66666667 519.3125 749.75 C519.89032227 750.6579834 520.46814453 751.5659668 521.06347656 752.50146484 C522.22697232 754.32986172 523.39038415 756.15831202 524.55371094 757.98681641 C527.5181971 762.64612505 530.48425729 767.30441932 533.453125 771.9609375 C538.88463596 780.48208585 544.3113227 789.00629625 549.6875 797.5625 C550.11063477 798.23265137 550.53376953 798.90280273 550.96972656 799.59326172 C553.8125 804.13323138 553.8125 804.13323138 553.8125 805.25 C536.79261285 805.6713943 519.77436316 805.98831929 502.75044537 806.18261909 C494.84479115 806.27525688 486.94238586 806.40140718 479.03881836 806.60791016 C472.14579769 806.78792313 465.25512933 806.90357821 458.35982352 806.94359291 C454.71071498 806.96697572 451.06833156 807.02142727 447.42139244 807.15314102 C425.26364932 807.92311423 425.26364932 807.92311423 419.52993202 803.48201942 C415.8369413 799.2424198 413.58832107 794.56900495 411.63251591 789.33425903 C410.57400281 786.64380453 409.10800702 784.36048405 407.45703125 781.99609375 C406.9885376 781.2808252 406.52004395 780.56555664 406.03735352 779.82861328 C405.33823853 778.76876221 405.33823853 778.76876221 404.625 777.6875 C403.52525172 776.00702711 402.42633413 774.32601039 401.328125 772.64453125 C400.76029297 771.77521973 400.19246094 770.9059082 399.60742188 770.01025391 C390.66561072 756.2594219 381.89790949 742.39401273 373.09741211 728.55249023 C366.70126771 718.49573322 360.27280429 708.45970365 353.84472656 698.42333984 C349.83406593 692.16065762 345.8259604 685.89633986 341.81738281 679.63232422 C338.45983503 674.38584796 335.10165635 669.13977765 331.7421875 663.89453125 C324.84447168 653.1234827 317.95910131 642.34483934 311.09667969 631.55126953 C304.0265684 620.43510642 296.91806436 609.34351986 289.8125 598.25 C282.13195984 586.25880261 274.45286327 574.26685035 266.8125 562.25 C259.81816429 551.25147952 252.80621012 540.26442744 245.76416016 529.29638672 C243.82928571 526.27620117 241.90440647 523.2498171 239.98046875 520.22265625 C238.79981094 518.37739185 237.61883792 516.53232907 236.4375 514.6875 C235.89601318 513.8301123 235.35452637 512.97272461 234.79663086 512.08935547 C234.2991333 511.3160791 233.80163574 510.54280273 233.2890625 509.74609375 C232.85674316 509.06732178 232.42442383 508.3885498 231.97900391 507.68920898 C231.59405762 507.21427002 231.20911133 506.73933105 230.8125 506.25 C225.74374761 506.25 220.85801368 513.18295525 217.453125 516.5859375 C215.61529821 518.43224043 213.78092774 520.28189477 211.94824219 522.13330078 C208.42017225 525.68499197 204.82493828 529.04983662 201 532.28125 C197.81429249 535.14838676 194.82665242 538.20431879 191.8125 541.25 C187.66741669 545.43844192 183.50333641 549.47670717 179 553.28125 C175.81429249 556.14838676 172.82665242 559.20431879 169.8125 562.25 C165.66873868 566.4371061 161.50658451 570.47486599 157.00390625 574.27734375 C153.1775546 577.7217423 149.59925108 581.42407861 145.99804688 585.1015625 C145.43021484 585.67777344 144.86238281 586.25398437 144.27734375 586.84765625 C143.778396 587.35820557 143.27944824 587.86875488 142.76538086 588.39477539 C140.8125 590.25 140.8125 590.25 139.12146753 591.43936265 C135.36086323 594.19186324 135.36086323 594.19186324 133.15964043 598.17437053 C132.91493964 600.44341126 132.88544159 602.6241096 132.93275452 604.90597534 C132.91765773 606.19385883 132.91765773 606.19385883 132.90225595 607.50776017 C132.87705863 610.37828738 132.90161738 613.24619752 132.92602539 616.11669922 C132.91813586 618.17668499 132.90717443 620.23666096 132.89337158 622.2966156 C132.86463145 627.88520403 132.87888596 633.47295546 132.90081334 639.06154394 C132.91643781 644.9032469 132.89258712 650.7447848 132.87290955 656.5864563 C132.84165831 667.64675997 132.84594953 678.70675342 132.86298412 689.76707661 C132.88395295 704.71404433 132.85007145 719.66088092 132.81924725 734.60781479 C132.77213381 758.15535495 132.79835113 781.70223247 132.8125 805.25 C95.5225 805.25 58.2325 805.25 19.8125 805.25 C19.80219254 796.5564769 19.79188507 787.8629538 19.78126526 778.9059906 C19.77423805 773.00716144 19.76720637 767.10833229 19.76014709 761.20950317 C19.75877155 760.06003643 19.75877155 760.06003643 19.75736821 758.88734814 C19.6965991 708.12102748 19.63467096 657.35470853 19.5688324 606.58839417 C19.56756072 605.60757267 19.56628904 604.62675118 19.56497882 603.61620783 C19.53733143 582.29789757 19.5094683 560.9795876 19.48138306 539.66127792 C19.46761044 529.2060701 19.45388547 518.75086221 19.44018555 508.2956543 C19.43882146 507.25526156 19.43745738 506.21486881 19.43605196 505.14294902 C19.39189794 471.44945392 19.35088766 437.75595589 19.31151587 404.06245489 C19.27102366 369.42438065 19.22734345 334.78631185 19.17967889 300.1482467 C19.1729408 295.2505703 19.16623898 290.35289384 19.15955925 285.45521736 C19.15824352 284.49132906 19.15692779 283.52744075 19.1555722 282.53434371 C19.13452595 267.04786862 19.11681858 251.56139146 19.10037469 236.07491088 C19.0837523 220.48794074 19.06357694 204.90097835 19.03983159 189.31401741 C19.02584814 180.0651198 19.01453213 170.81622815 19.00713562 161.56732288 C19.00191225 155.37290371 18.99310803 149.17849601 18.98151226 142.98408553 C18.97502356 139.46498069 18.96997713 135.94589216 18.96933801 132.42678099 C19.08682096 102.20914317 19.08682096 102.20914317 16.5625 72.125 C16.43391602 71.14402344 16.30533203 70.16304688 16.17285156 69.15234375 C12.75800944 44.64119059 6.40890207 22.5752556 -12.1875 5.25 C-13.52083333 3.91666667 -14.85416667 2.58333333 -16.1875 1.25 C-13.37380765 -1.56369235 -4.10551696 0.0032623 0 0 Z " fill="#133D33" transform="translate(1821.1875,-0.24999999999999997)"/>
<path d="M0 0 C0.8596637 0.00060425 1.71932739 0.0012085 2.6050415 0.00183105 C16.17837916 0.02766283 29.59025506 0.39929941 43.0625 2.1875 C44.04750488 2.31640625 45.03250977 2.4453125 46.04736328 2.578125 C88.64131863 8.35085871 130.83523771 22.04455028 166.0625 47.1875 C166.66239746 47.61224609 167.26229492 48.03699219 167.88037109 48.47460938 C178.37117612 55.94808917 187.86447122 64.18084935 197.0625 73.1875 C197.64523682 73.74759766 198.22797363 74.30769531 198.82836914 74.88476562 C210.44891231 86.21251527 219.44914623 99.9308595 227.0625 114.1875 C227.41119141 114.83557617 227.75988281 115.48365234 228.11914062 116.15136719 C239.11979037 136.98529371 245.1521602 160.2739529 250.0625 183.1875 C250.26117676 184.10901855 250.45985352 185.03053711 250.66455078 185.97998047 C251.47466339 189.8590236 252.0625 193.19772202 252.0625 197.1875 C247.9592776 198.02552913 243.85477638 198.85711878 239.75 199.6875 C238.58275391 199.92597656 237.41550781 200.16445312 236.21289062 200.41015625 C235.09462891 200.63574219 233.97636719 200.86132812 232.82421875 201.09375 C231.79256592 201.30322266 230.76091309 201.51269531 229.69799805 201.72851562 C227.0625 202.1875 227.0625 202.1875 224.0625 202.1875 C223.86205078 201.32809814 223.66160156 200.46869629 223.45507812 199.58325195 C219.39089673 182.32545674 215.1718209 165.49275615 208.0625 149.1875 C207.72138184 148.39134277 207.38026367 147.59518555 207.02880859 146.77490234 C199.70700952 129.87713132 190.32822813 113.97803529 178.0625 100.1875 C177.34707031 99.36378906 176.63164062 98.54007812 175.89453125 97.69140625 C173.65577144 95.15150352 171.372612 92.66262 169.0625 90.1875 C168.26585937 89.32511719 167.46921875 88.46273437 166.6484375 87.57421875 C155.40989298 75.84335129 142.18273616 66.17137185 128.0625 58.1875 C127.44503906 57.83236328 126.82757813 57.47722656 126.19140625 57.11132812 C102.12377184 43.36179837 75.5043331 35.56238413 48.0625 32.1875 C47.01557983 32.04610596 47.01557983 32.04610596 45.94750977 31.90185547 C37.21093151 30.85395347 28.41130829 30.94368311 19.625 30.9375 C18.76245605 30.93682526 17.89991211 30.93615051 17.01123047 30.93545532 C-38.57998801 31.0042118 -89.15963225 46.38744609 -129.9375 85.1875 C-130.64519531 85.83074219 -131.35289062 86.47398438 -132.08203125 87.13671875 C-153.12240455 106.89152952 -166.99975726 137.09224462 -168.17578125 165.859375 C-168.87288211 197.78157002 -157.88287125 224.41909527 -136.16796875 247.890625 C-113.78214025 270.94293175 -82.6152197 284.71021693 -54.26654053 299.01190186 C-51.84805736 300.23264675 -49.43101652 301.45621358 -47.01416016 302.68017578 C-28.2970856 312.15252708 -9.53109083 321.44533834 9.54296875 330.1796875 C16.30200348 333.27956617 22.99661507 336.50618152 29.6875 339.75 C41.63913829 345.53569908 53.67450466 351.12301726 65.74267578 356.66064453 C72.65878026 359.84150329 79.55987541 363.05477882 86.46289062 366.26391602 C92.31707274 368.98510749 98.17318841 371.70186523 104.03515625 374.40625 C174.55981257 406.97092722 174.55981257 406.97092722 191.0625 419.1875 C192.35413276 420.12114066 193.64580231 421.05473043 194.9375 421.98828125 C202.20689841 427.29590634 209.10533655 432.78571635 215.671875 438.94921875 C217.83505502 440.97454906 220.05012611 442.89984421 222.3125 444.8125 C253.57331397 472.04391547 270.3355627 514.91312689 275.0625 555.1875 C275.1567627 555.97632568 275.25102539 556.76515137 275.34814453 557.57788086 C276.25396498 566.16048914 276.30587744 574.75434042 276.3125 583.375 C276.31351212 584.56477951 276.31351212 584.56477951 276.31454468 585.77859497 C276.25757596 628.15001197 265.4182805 669.35120094 239.0625 703.1875 C238.40507813 704.06664062 237.74765625 704.94578125 237.0703125 705.8515625 C226.08757098 719.99664982 212.6857773 732.85861702 198.0625 743.1875 C197.30662598 743.72294434 196.55075195 744.25838867 195.77197266 744.81005859 C145.66503052 779.94729188 84.03169528 800.60417539 23.0625 805.1875 C21.9789624 805.27209473 21.9789624 805.27209473 20.87353516 805.35839844 C-58.46253813 811.31609512 -145.60719411 789.91110163 -207.43530273 737.9465332 C-210.3323189 735.42478405 -213.15293993 732.83247415 -215.9375 730.1875 C-216.865625 729.31609375 -217.79375 728.4446875 -218.75 727.546875 C-224.65499221 721.82191304 -229.90017214 715.68211502 -234.9375 709.1875 C-235.35612305 708.65592285 -235.77474609 708.1243457 -236.20605469 707.57666016 C-260.35007064 676.74784809 -286.10138505 626.21937336 -283.9375 586.1875 C-280.18899397 585.34734843 -276.43847168 584.51656781 -272.6875 583.6875 C-271.62402344 583.44902344 -270.56054688 583.21054687 -269.46484375 582.96484375 C-268.44003906 582.73925781 -267.41523438 582.51367188 -266.359375 582.28125 C-265.41674805 582.07177734 -264.47412109 581.86230469 -263.50292969 581.64648438 C-260.9375 581.1875 -260.9375 581.1875 -256.9375 581.1875 C-256.68097656 582.46238281 -256.42445313 583.73726562 -256.16015625 585.05078125 C-248.46928827 621.78447591 -234.02748469 657.10303497 -209.9375 686.1875 C-209.21578613 687.06148437 -209.21578613 687.06148437 -208.47949219 687.953125 C-170.7593081 733.36289003 -116.27241235 758.3159178 -57.9375 764.1875 C6.09358758 769.78924764 72.6210428 761.16379069 124.0625 719.4375 C125.73355008 718.02600652 127.40073086 716.60990836 129.0625 715.1875 C129.71734375 714.65511719 130.3721875 714.12273438 131.046875 713.57421875 C152.74066287 695.76803446 167.00245313 667.29953373 170.75 639.75 C173.3339298 609.40256917 163.79627127 582.77861468 144.33496094 559.67089844 C126.90972606 539.35705977 101.15189073 526.81228925 78.0625 514.1875 C77.01143066 513.61241699 75.96036133 513.03733398 74.87744141 512.44482422 C59.52887174 504.06965368 44.03707812 495.98123051 28.48945618 487.98417664 C24.32060297 485.83883607 20.15867482 483.68063667 16 481.515625 C4.65304727 475.60883857 -6.71805368 469.76651815 -18.17602539 464.07788086 C-23.76480939 461.29598317 -29.30256358 458.43458728 -34.8125 455.5 C-43.44364328 450.90600438 -52.18470972 446.54332329 -60.9375 442.1875 C-70.22015364 437.56632655 -79.48232252 432.92459177 -88.63549805 428.05029297 C-93.47208124 425.47722434 -98.32964084 422.94774482 -103.203125 420.4453125 C-103.85329086 420.11145035 -104.50345673 419.7775882 -105.17332458 419.43360901 C-105.83405472 419.09433884 -106.49478485 418.75506866 -107.17553711 418.40551758 C-121.20926944 411.19899498 -135.15010051 403.85783014 -148.9375 396.1875 C-149.88028809 395.66591309 -150.82307617 395.14432617 -151.79443359 394.60693359 C-174.96309487 381.77227357 -196.70029316 368.5213021 -215.9375 350.1875 C-216.76765625 349.42179687 -217.5978125 348.65609375 -218.453125 347.8671875 C-229.8685139 337.00415613 -239.17447958 323.85174579 -246.9375 310.1875 C-247.59105469 309.06601562 -248.24460938 307.94453125 -248.91796875 306.7890625 C-272.22900996 265.77764433 -277.03073997 214.5849088 -265.0859375 169.24609375 C-255.7618662 135.71686353 -239.16938511 106.20794815 -214.9375 81.1875 C-214.43637695 80.6605957 -213.93525391 80.13369141 -213.41894531 79.59082031 C-189.1226345 54.08347843 -158.33830972 36.38229587 -125.9375 23.1875 C-125.12700195 22.85621094 -124.31650391 22.52492188 -123.48144531 22.18359375 C-84.57509952 6.50956654 -41.77107929 -0.05444062 0 0 Z " fill="#133D33" transform="translate(323.9375,3.8125)"/>
<path d="M0 0 C1.01816803 -0.00067474 2.03633606 -0.00134949 3.08535767 -0.00204468 C68.94196384 0.06698943 134.79644875 15.01760773 183.1875 62.25 C213.75442655 93.16540943 225.17669838 135.22781186 230.1875 177.25 C230.27071564 177.90134851 230.35393127 178.55269703 230.4396686 179.22378337 C231.32905154 186.91669284 231.32442954 194.57462282 231.30775452 202.30935669 C231.3081912 203.82353956 231.30906788 205.33772235 231.31034368 206.85190475 C231.31256964 210.99089546 231.30859347 215.12986008 231.30356562 219.26884747 C231.29923393 223.74042443 231.30070947 228.21200001 231.3014679 232.68357849 C231.30199141 240.42365999 231.29886263 248.16373304 231.29323006 255.90381241 C231.28509168 267.09457071 231.28249744 278.28532494 231.28124207 289.47608589 C231.27905522 307.63379916 231.27240509 325.79150792 231.26293945 343.94921875 C231.25375583 361.58430967 231.24667964 379.21939936 231.24243164 396.85449219 C231.24203756 398.48593141 231.24203756 398.48593141 231.24163551 400.15032901 C231.24033044 405.60680866 231.23906674 411.06328833 231.23782361 416.519768 C231.22746244 461.76318266 231.20903029 507.006589 231.1875 552.25 C191.9175 552.25 152.6475 552.25 112.1875 552.25 C111.6925 490.87 111.6925 490.87 111.1875 428.25 C108.2175 435.18 105.2475 442.11 102.1875 449.25 C88.67025211 474.95180937 70.60900523 496.95188776 47.1875 514.25 C46.63030273 514.66749512 46.07310547 515.08499023 45.49902344 515.51513672 C16.26652661 537.15199065 -20.94473911 547.97892106 -56.8125 551.25 C-58.62041016 551.41628906 -58.62041016 551.41628906 -60.46484375 551.5859375 C-87.74206758 553.66902786 -114.99134391 551.89741009 -142 547.875 C-143.01308228 547.72655136 -143.01308228 547.72655136 -144.04663086 547.57510376 C-181.78782582 541.97444415 -220.54224642 526.06710119 -244.04589844 494.59863281 C-262.584796 469.04274148 -269.03442746 440.11900245 -269.125 408.9375 C-269.12876648 408.2219696 -269.13253296 407.50643921 -269.13641357 406.76922607 C-269.17149117 393.62417943 -268.11645162 380.68620333 -264.6875 367.9375 C-264.47577148 367.14899658 -264.26404297 366.36049316 -264.04589844 365.5480957 C-258.62820071 346.39756291 -248.73870724 330.24725702 -235.8125 315.25 C-234.90177734 314.15558594 -234.90177734 314.15558594 -233.97265625 313.0390625 C-212.49854233 287.62072358 -179.55792637 271.12644377 -148.3125 261.4375 C-147.4973291 261.18379639 -146.6821582 260.93009277 -145.84228516 260.66870117 C-128.36493387 255.54545473 -110.25178954 252.44737561 -92.3125 249.4375 C-91.27175323 249.26101929 -90.23100647 249.08453857 -89.15872192 248.90270996 C-58.67904012 243.74539584 -28.10927436 239.12165075 2.44549084 234.43496323 C30.64434017 230.14103859 30.64434017 230.14103859 58.7734375 225.41796875 C59.84606339 225.22962463 60.91868927 225.04128052 62.02381897 224.847229 C78.55748219 221.84075177 94.85076122 216.29121349 106.1875 203.25 C111.35314664 194.99756451 113.3321492 187.98614383 113.390625 178.328125 C113.39763931 177.55942581 113.40465363 176.79072662 113.41188049 175.99873352 C113.42944345 173.49909647 113.43574294 170.99969669 113.4375 168.5 C113.43817474 167.64542206 113.43884949 166.79084412 113.43954468 165.91036987 C113.38599745 123.17717791 105.43982351 73.94958396 74.1875 42.25 C51.20505615 19.67164307 15.47248704 21.72162064 -14.44897461 21.89868164 C-49.79461456 22.25165646 -84.56987578 29.24140373 -115.8125 46.25 C-116.72854004 46.73919922 -116.72854004 46.73919922 -117.66308594 47.23828125 C-138.31067944 58.30618508 -156.43196725 73.80797032 -170.8125 92.25 C-171.60785156 93.26707031 -172.40320312 94.28414063 -173.22265625 95.33203125 C-183.24103162 108.54296613 -191.00102429 123.74202892 -196.8125 139.25 C-204.44304095 138.63955672 -211.51439474 136.45378179 -218.8125 134.25 C-213.30046503 115.71959098 -204.96824606 99.02396375 -193.8125 83.25 C-193.39307129 82.65413086 -192.97364258 82.05826172 -192.54150391 81.44433594 C-180.71912232 64.92743132 -165.66630986 50.53813312 -148.8125 39.25 C-148.22500977 38.85554688 -147.63751953 38.46109375 -147.03222656 38.0546875 C-113.41537082 15.90711195 -73.49997155 5.27150637 -33.8125 1.25 C-32.96840576 1.1557373 -32.12431152 1.06147461 -31.25463867 0.96435547 C-20.86583833 -0.07091316 -10.42977296 0.00621893 0 0 Z M106.5 238.8125 C96.1141212 245.88176178 84.12570934 250.2668503 72.25 254.125 C71.24962204 254.45433029 71.24962204 254.45433029 70.22903442 254.79031372 C42.21378972 264.0110463 13.87936026 272.30614156 -14.39453125 280.69140625 C-81.35210445 299.48474261 -81.35210445 299.48474261 -137.8125 338.25 C-139.04419922 339.46623047 -139.04419922 339.46623047 -140.30078125 340.70703125 C-149.90737618 350.71182701 -156.69295565 363.05130299 -160.8125 376.25 C-161.13089844 377.23097656 -161.44929688 378.21195313 -161.77734375 379.22265625 C-167.70334538 401.2608282 -164.81173764 426.87821985 -154.8125 447.25 C-154.53422363 447.82814453 -154.25594727 448.40628906 -153.96923828 449.00195312 C-140.87739033 475.93618223 -118.90103252 496.78285722 -90.62597656 507.04345703 C-57.9478949 518.15810236 -23.6608268 514.17702871 7.12841797 499.31298828 C22.45269839 491.76381667 35.45438364 482.56505138 47.70751953 470.68310547 C49.0835628 469.35064523 50.47668089 468.03588058 51.87109375 466.72265625 C94.24415283 425.93610796 107.64470263 363.76104664 111.1875 307.25 C111.27507568 306.03103027 111.36265137 304.81206055 111.45288086 303.55615234 C112.39828012 289.58540174 112.29998653 275.62122975 112.25 261.625 C112.24497165 259.15364675 112.24041112 256.6822925 112.23632812 254.2109375 C112.22543596 248.22393614 112.20880509 242.2369729 112.1875 236.25 C109.52028422 236.25 108.65068855 237.2435215 106.5 238.8125 Z " fill="#133D33" transform="translate(1509.8125,252.75)"/>
<path d="M0 0 C36.16107424 -0.55802704 71.91642899 2.15005627 106.61376953 13.06201172 C107.45020996 13.32208008 108.28665039 13.58214844 109.1484375 13.85009766 C134.44822448 21.84774748 158.14632987 34.11893191 178.61376953 51.06201172 C179.47977783 51.77574951 179.47977783 51.77574951 180.36328125 52.50390625 C191.93171752 62.09275046 202.29951107 72.23081938 211.61376953 84.06201172 C212.39365234 85.01333984 213.17353516 85.96466797 213.97705078 86.94482422 C221.54075746 96.37834674 227.59935601 106.59183116 233.61376953 117.06201172 C234.17427002 118.01599854 234.17427002 118.01599854 234.74609375 118.98925781 C257.02303776 157.00615843 267.12147017 203.26413024 270.86376953 246.74951172 C270.94401367 247.64871338 271.02425781 248.54791504 271.10693359 249.47436523 C271.92746412 260.36547679 271.61376953 271.06971329 271.61376953 282.06201172 C130.70376953 282.06201172 -10.20623047 282.06201172 -155.38623047 282.06201172 C-150.9437859 355.36234706 -138.43747162 437.85300832 -81.57373047 490.74951172 C-79.86547504 492.21179999 -78.13450794 493.64781601 -76.38623047 495.06201172 C-75.61666016 495.68922119 -75.61666016 495.68922119 -74.83154297 496.32910156 C-37.88153541 526.04740283 9.24797724 533.6082365 55.38354492 529.04418945 C115.23733945 522.47021633 169.69960301 499.43918375 213.61376953 458.06201172 C214.78746094 456.96953125 214.78746094 456.96953125 215.98486328 455.85498047 C221.16375934 450.87917837 225.57944906 445.47990347 229.8972168 439.75805664 C232.00434337 436.98596828 233.68797838 435.01253916 236.61376953 433.06201172 C242.55376953 436.69201172 248.49376953 440.32201172 254.61376953 444.06201172 C252.85169718 448.46719259 250.85333628 451.89698957 248.11376953 455.68701172 C247.45380981 456.60571045 247.45380981 456.60571045 246.78051758 457.54296875 C243.12373287 462.54302235 239.15538009 467.09781803 234.91064453 471.61279297 C232.92268199 473.73261016 231.04242317 475.89845702 229.17626953 478.12451172 C193.93092459 518.3351362 137.82615161 540.37293256 86.61376953 550.06201172 C85.39222168 550.29380127 85.39222168 550.29380127 84.14599609 550.53027344 C3.70820824 565.27443703 -92.69637337 551.32804573 -160.98681641 505.30957031 C-170.87517697 498.45139153 -180.17729309 491.08421344 -188.76318359 482.64990234 C-190.5107194 480.9402193 -192.28386395 479.25956598 -194.05810547 477.57763672 C-251.25554558 422.67307555 -267.55823365 341.26766885 -269.25341797 265.05419922 C-270.45118469 203.91779649 -254.34523333 141.46364983 -214.38623047 94.06201172 C-213.93103027 93.51802734 -213.47583008 92.97404297 -213.00683594 92.41357422 C-163.36180547 33.18225164 -90.73786396 7.75699039 -15.69091797 0.59326172 C-10.45788552 0.20642564 -5.24376244 0.09602853 0 0 Z M-100.94873047 70.74951172 C-142.07895523 115.78670163 -155.80244937 184.83015065 -155.44873047 243.87451172 C-155.44369871 245.35693206 -155.43913881 246.83935408 -155.43505859 248.32177734 C-155.42420117 251.90189122 -155.40703181 255.48194014 -155.38623047 259.06201172 C-115.7836917 259.08487654 -76.18115379 259.10250915 -36.57860974 259.11307705 C-31.90828213 259.11432783 -27.23795454 259.11562214 -22.56762695 259.11694336 C-21.63780807 259.11720567 -20.70798919 259.11746798 -19.74999397 259.11773824 C-4.67396109 259.12209527 10.402068 259.12998299 25.47809862 259.13916451 C40.93554284 259.14850015 56.39298506 259.15406714 71.85043198 259.15610021 C81.39647105 259.15747563 90.9424994 259.16182722 100.48853517 259.16992819 C107.02538239 259.17519453 113.56222403 259.17681627 120.09907322 259.1755131 C123.87632649 259.17486954 127.65356096 259.17588919 131.43081093 259.18121719 C135.51613723 259.18693802 139.60142296 259.18501293 143.68675232 259.18226624 C145.49751044 259.1866355 145.49751044 259.1866355 147.34484953 259.19109303 C148.97284014 259.18810645 148.97284014 259.18810645 150.63371944 259.18505955 C152.05026614 259.18562913 152.05026614 259.18562913 153.49542993 259.18621022 C155.59899029 259.29829359 155.59899029 259.29829359 156.61376953 258.06201172 C156.86123279 255.28492407 157.04388372 252.53288919 157.17626953 249.74951172 C157.21727783 248.88994873 157.25828613 248.03038574 157.30053711 247.14477539 C159.79093523 190.45341434 154.08210185 121.74244082 118.61376953 75.06201172 C117.96923828 74.20994141 117.32470703 73.35787109 116.66064453 72.47998047 C114.69503316 69.96105723 112.67150358 67.50606365 110.61376953 65.06201172 C109.96150391 64.26279297 109.30923828 63.46357422 108.63720703 62.64013672 C91.34079487 42.29903778 67.45536237 30.34254155 41.61376953 25.06201172 C40.51677734 24.83513672 39.41978516 24.60826172 38.28955078 24.37451172 C-13.99972169 15.62926754 -64.76850067 32.87813803 -100.94873047 70.74951172 Z " fill="#133D33" transform="translate(3519.38623046875,251.93798828125)"/>
<path d="M0 0 C0.58668457 0.41991211 1.17336914 0.83982422 1.77783203 1.27246094 C9.46324454 6.84248268 16.61645562 12.98282845 23.47314453 19.54052734 C24.50315775 20.52508427 25.53812459 21.5044814 26.57763672 22.47900391 C35.83940012 31.18320295 43.59645001 40.68218329 51 51 C51.4444043 51.61568848 51.88880859 52.23137695 52.34667969 52.86572266 C80.61225344 92.43969852 94.56987347 140.30453648 101 188 C101.11859375 188.87366211 101.2371875 189.74732422 101.359375 190.64746094 C103.45948682 206.85457388 103 222.5121456 103 239 C-37.91 239 -178.82 239 -324 239 C-318.28124948 313.34375679 -306.51838584 397.50323967 -247 450 C-222.8917823 470.36103512 -194.09946286 481.84563979 -163 486 C-162.02417969 486.13277344 -161.04835938 486.26554688 -160.04296875 486.40234375 C-94.31655136 493.42727562 -23.27833138 471.32988324 28.18945312 430.48779297 C32.09427819 427.27905457 35.78707119 423.85585313 39.44921875 420.375 C42 418 42 418 44.63671875 415.90234375 C46.72444296 414.22181203 48.39522869 412.59566051 50.125 410.5625 C50.71023438 409.87929688 51.29546875 409.19609375 51.8984375 408.4921875 C52.59195313 407.66976563 53.28546875 406.84734375 54 406 C55.42269993 404.31410577 56.84559691 402.62837957 58.26904297 400.94311523 C59.24128992 399.79055542 60.211729 398.63646766 61.18017578 397.48071289 C63.36568207 394.8817641 65.57700269 392.3777528 68 390 C70.82101828 391.58952587 73.63013788 393.19899611 76.4375 394.8125 C77.23994141 395.26431641 78.04238281 395.71613281 78.86914062 396.18164062 C79.63291016 396.62314453 80.39667969 397.06464844 81.18359375 397.51953125 C81.89056396 397.92276611 82.59753418 398.32600098 83.32592773 398.74145508 C85 400 85 400 86 403 C76.48566732 422.69400332 57.04589694 440.79605393 40 454 C39.46310547 454.41862305 38.92621094 454.83724609 38.37304688 455.26855469 C14.76429014 473.55111085 -12.55669064 487.90894226 -41 497 C-41.80501953 497.2582959 -42.61003906 497.5165918 -43.43945312 497.78271484 C-83.23870853 510.31468707 -124.70884626 513.57122844 -166.1875 511.25 C-167.34378906 511.18564758 -167.34378906 511.18564758 -168.5234375 511.11999512 C-230.61022198 507.56081931 -295.17208321 491.28755804 -344 451 C-344.56525391 450.53625977 -345.13050781 450.07251953 -345.71289062 449.59472656 C-358.006225 439.44967609 -369.26198511 428.65941935 -379 416 C-379.41572266 415.46600586 -379.83144531 414.93201172 -380.25976562 414.38183594 C-423.18817353 358.9564915 -437.20628687 288.58881373 -437.25 219.8125 C-437.25067474 218.84944946 -437.25134949 217.88639893 -437.25204468 216.89416504 C-437.17787042 149.84340573 -417.00914303 85.91372201 -370 37 C-369.48179687 36.45456543 -368.96359375 35.90913086 -368.4296875 35.34716797 C-360.52970286 27.06045378 -352.18596544 19.82261095 -343 13 C-342.44763672 12.58153809 -341.89527344 12.16307617 -341.32617188 11.73193359 C-297.09741691 -21.72683233 -242.50616576 -36.91795074 -188 -42 C-187.24557617 -42.07202637 -186.49115234 -42.14405273 -185.71386719 -42.21826172 C-122.41386113 -47.94656279 -52.55592661 -37.69431745 0 0 Z M-255 14 C-255.90492188 14.77085937 -256.80984375 15.54171875 -257.7421875 16.3359375 C-264.24096999 22.04262462 -269.75808875 28.13028636 -275 35 C-275.66644531 35.86238281 -276.33289062 36.72476563 -277.01953125 37.61328125 C-307.46803894 78.15123528 -319.13868359 129.51662321 -323.25 179.1875 C-323.33024414 180.12215088 -323.41048828 181.05680176 -323.49316406 182.01977539 C-324.3156962 193.37358813 -324 204.54914812 -324 216 C-221.04 216 -118.08 216 -12 216 C-11.31662631 209.8496368 -10.8309393 203.98841136 -10.796875 197.83984375 C-10.78990601 196.98473709 -10.78293701 196.12963043 -10.77575684 195.24861145 C-10.75837655 192.47819064 -10.75202825 189.70797319 -10.75 186.9375 C-10.74899292 185.98580933 -10.74798584 185.03411865 -10.74694824 184.05358887 C-10.78996121 123.65579052 -21.99291773 58.58973147 -65.1875 13.4375 C-92.04118484 -12.78125766 -126.7761676 -20.6173176 -163.2890625 -20.2109375 C-197.1080931 -19.54100806 -229.28603513 -8.07597627 -255 14 Z " fill="#133D33" transform="translate(3070,295)"/>
<path d="M0 0 C1.12453583 -0.00101212 1.12453583 -0.00101212 2.27178955 -0.00204468 C38.18360766 0.04935537 75.52309671 8.03551738 101.84765625 34.12890625 C123.76758493 56.78683188 133.00986962 88.24564916 132.93554783 119.25835514 C132.93670167 120.44722457 132.93785552 121.636094 132.93904433 122.86098978 C132.94123111 126.1533278 132.93894964 129.44562736 132.93476619 132.73796232 C132.93132107 136.32254382 132.93370487 139.90712228 132.93534368 143.4917044 C132.93741467 149.77143541 132.93577833 156.05115694 132.93170547 162.33088684 C132.92566615 171.66859026 132.92537007 181.00628771 132.92624746 190.34399273 C132.92756093 206.05210519 132.92422161 221.76021343 132.91823006 237.46832466 C132.91231292 253.02119531 132.90846409 268.5740642 132.90737724 284.12693596 C132.9073085 285.09398735 132.90723976 286.06103875 132.90716894 287.05739473 C132.90683061 291.96856545 132.90652922 296.87973618 132.90624207 301.7909069 C132.90414169 336.57618196 132.89740442 371.36145474 132.88793945 406.14672852 C132.87875502 439.94002266 132.8716714 473.73331618 132.86743164 507.52661133 C132.86730011 508.56827862 132.86716859 509.60994591 132.86703308 510.68317888 C132.86571456 521.14403544 132.86443874 531.60489201 132.86319422 542.06574858 C132.86065801 563.37569583 132.85783676 584.68564303 132.85484314 605.99559021 C132.8546372 607.4652837 132.8546372 607.4652837 132.85442711 608.96466796 C132.84729816 659.66110787 132.83593726 710.35754672 132.8236084 761.0539856 C132.82343499 761.76714491 132.82326159 762.48030421 132.82308293 763.21507441 C132.81966838 777.2267163 132.81606628 791.23835815 132.8125 805.25 C95.5225 805.25 58.2325 805.25 19.8125 805.25 C19.80441315 796.56615494 19.79632629 787.88230988 19.78799438 778.93531799 C19.78243941 773.04258726 19.77687538 767.14985653 19.77125549 761.25712585 C19.77052546 760.49158062 19.76979542 759.72603539 19.76904326 758.93729182 C19.72062333 708.20012806 19.66985101 657.46296787 19.61117554 606.72581482 C19.61004191 605.74496416 19.60890829 604.7641135 19.60774031 603.7535401 C19.58308357 582.43227585 19.55799045 561.11101214 19.53244839 539.78974894 C19.51992355 529.33240759 19.50749504 518.87506613 19.49511719 508.41772461 C19.49388386 507.37714462 19.49265054 506.33656462 19.49137984 505.2644519 C19.45151581 471.59235405 19.41800171 437.92025355 19.38781309 404.24814575 C19.35673265 369.61897442 19.31918101 334.98981591 19.27359388 300.3606605 C19.26714435 295.45916435 19.2607681 290.5576681 19.25443649 285.6561718 C19.25256404 284.20927596 19.25256404 284.20927596 19.25065375 282.7331499 C19.23082203 267.26352703 19.21772559 251.79390558 19.20720672 236.32427388 C19.19646208 220.73712381 19.1784817 205.14999497 19.15333296 189.56286139 C19.13864222 180.32494617 19.1292814 171.08706339 19.12793317 161.84913639 C19.12647731 155.64926804 19.11768102 149.44943592 19.10334408 143.24958411 C19.09541554 139.73555783 19.09026806 136.22160236 19.09422119 132.70756764 C19.1041147 117.93896199 18.77251694 103.23922382 17.87712669 88.49967861 C17.83538471 87.80589349 17.79364273 87.11210838 17.75063584 86.39729947 C15.92716442 56.69769813 10.4639994 26.39419075 -12.1875 5.25 C-13.52543099 3.92128024 -14.86017258 2.58931232 -16.1875 1.25 C-13.37380765 -1.56369235 -4.10551696 0.0032623 0 0 Z " fill="#133D33" transform="translate(2423.1875,-0.24999999999999997)"/>
<path d="M0 0 C1256.31 0 2512.62 0 3807 0 C3807 3.3 3807 6.6 3807 10 C2550.69 10 1294.38 10 0 10 C0 6.7 0 3.4 0 0 Z " fill="#143D31" transform="translate(0,957)"/>
<path d="M0 0 C17 0 17 0 21.59765625 4.22265625 C22.81240449 6.13252529 23.96527606 8.0827746 25.0625 10.0625 C26.36947242 12.1650712 27.67811859 14.26660274 28.98828125 16.3671875 C29.96595459 18.00252441 29.96595459 18.00252441 30.96337891 19.67089844 C34.32757217 25.17007602 38.0457126 30.41423827 41.75 35.6875 C42.41781494 36.66017822 43.08562988 37.63285645 43.77368164 38.63500977 C44.40008545 39.54307373 45.02648926 40.4511377 45.671875 41.38671875 C46.2194043 42.18295654 46.76693359 42.97919434 47.33105469 43.79956055 C49.05840108 46.07699955 50.93512979 48.02768323 53 50 C58.38808771 42.52661873 63.71134304 35.01002173 68.96850586 27.44384766 C70.36709033 25.43589975 71.77289657 23.43296315 73.18579102 21.43505859 C76.5124571 16.71022851 79.71331611 12.06651791 82.30029297 6.89111328 C83.87453431 4.35975483 86.00434545 2.21435641 88 0 C93.61 0 99.22 0 105 0 C105 34.98 105 69.96 105 106 C99.39 106 93.78 106 88 106 C87.67 81.58 87.34 57.16 87 32 C83.04 37.61 79.08 43.22 75 49 C72.21781565 52.88225306 69.42546312 56.75578987 66.61962891 60.62084961 C64.2290853 63.91475045 61.84341649 67.20980744 59.5078125 70.54296875 C58.45207031 72.03763672 58.45207031 72.03763672 57.375 73.5625 C56.78460937 74.40941406 56.19421875 75.25632812 55.5859375 76.12890625 C54 78 54 78 51 79 C50.64397705 78.48840332 50.2879541 77.97680664 49.92114258 77.44970703 C42.84850893 67.29488456 35.74139146 57.17084415 28.44067383 47.17822266 C24.8134589 42.19544146 21.426725 37.1400875 18 32 C17.67 56.42 17.34 80.84 17 106 C11.39 106 5.78 106 0 106 C0 71.02 0 36.04 0 0 Z " fill="#133D33" transform="translate(3478,1124)"/>
<path d="M0 0 C9.508125 -0.0825 19.01625 -0.165 28.8125 -0.25 C31.7925708 -0.28641602 34.7726416 -0.32283203 37.84301758 -0.36035156 C40.2351815 -0.37204648 42.62735345 -0.3822364 45.01953125 -0.390625 C46.84599182 -0.4213208 46.84599182 -0.4213208 48.70935059 -0.45263672 C58.9537493 -0.45677545 69.42649317 1.52536401 77 9 C82.34193931 15.75221128 84.99960493 23.3260088 84 32 C82.6445703 39.02359026 79.36390925 44.25649471 74 49 C73.34 49 72.68 49 72 49 C72 49.66 72 50.32 72 51 C72.680625 51.185625 73.36125 51.37125 74.0625 51.5625 C80.85850477 54.88820446 84.85930716 60.26711603 87.34375 67.32421875 C89.48347478 76.0486918 88.23517023 84.4266382 83.74609375 92.16015625 C78.0276263 100.49634177 71.25548737 103.25864798 61.60342407 105.3890686 C55.73900598 106.38333324 49.97691238 106.36977116 44.04296875 106.29296875 C42.35234314 106.28843689 42.35234314 106.28843689 40.62756348 106.28381348 C36.48078038 106.26830443 32.33412943 106.22642309 28.1875 106.1875 C18.885625 106.125625 9.58375 106.06375 0 106 C0 71.02 0 36.04 0 0 Z M17 15 C17 24.9 17 34.8 17 45 C21.67789743 45.06928318 26.35397862 45.12888762 31.03198242 45.16479492 C32.61960926 45.17978013 34.20719543 45.20017546 35.79467773 45.22631836 C50.23251368 45.73389216 50.23251368 45.73389216 62.9375 39.625 C66.12372791 35.56980084 67 33.33422215 67 28.125 C66.24109956 23.35476866 63.69510209 20.02475171 60 17 C55.42682498 14.60692725 51.22732569 14.74024353 46.19921875 14.8046875 C45.36284378 14.8075174 44.52646881 14.81034729 43.66474915 14.81326294 C41.00551774 14.8244168 38.34662882 14.84951237 35.6875 14.875 C33.87956217 14.88503601 32.07161904 14.89416077 30.26367188 14.90234375 C25.84221128 14.92263499 21.42148695 14.96179224 17 15 Z M17 59 C17 69.23 17 79.46 17 90 C22.83621227 90.1151884 28.66843678 90.21460258 34.50488281 90.2746582 C36.48744109 90.29970683 38.46990789 90.33375584 40.45214844 90.37719727 C43.31207926 90.43827619 46.17078292 90.46630629 49.03125 90.48828125 C50.34736267 90.52699089 50.34736267 90.52699089 51.69006348 90.56648254 C57.99139931 90.56931466 62.11153946 89.007439 67 85 C70.1570731 81.2318805 71.29735965 76.89291782 71 72 C69.36920534 66.68303043 66.72115051 63.02637853 62 60 C59.24414648 59.08138216 57.6403931 58.87795678 54.80395508 58.88647461 C53.54298759 58.88658791 53.54298759 58.88658791 52.25654602 58.88670349 C51.35333115 58.89186478 50.45011627 58.89702606 49.51953125 58.90234375 C48.59154221 58.9037587 47.66355316 58.90517365 46.70744324 58.90663147 C43.74242942 58.91223063 40.77749101 58.92478296 37.8125 58.9375 C35.80273547 58.94251511 33.79296975 58.947078 31.78320312 58.95117188 C26.8554163 58.96134905 21.9277926 58.98092467 17 59 Z " fill="#133D32" transform="translate(1925,1124)"/>
<path d="M0 0 C15 0 15 0 18.8515625 3.12109375 C19.82620855 4.52639736 20.74940711 5.96843559 21.625 7.4375 C22.6887646 9.01002159 23.7539082 10.58161107 24.8203125 12.15234375 C25.34399414 12.9604248 25.86767578 13.76850586 26.40722656 14.60107422 C28.91663257 18.38056892 31.7101148 21.92555107 34.5 25.5 C35.5809755 26.91027282 36.66039898 28.32173659 37.73828125 29.734375 C38.27404785 30.43498047 38.80981445 31.13558594 39.36181641 31.85742188 C41.02669091 34.034909 42.69112792 36.21272994 44.35546875 38.390625 C45.46611128 39.84377641 46.57678805 41.29690165 47.6875 42.75 C48.22640869 43.45503662 48.76531738 44.16007324 49.32055664 44.88647461 C53.42866473 50.25851959 57.55156919 55.61898965 61.68359375 60.97265625 C64.48129757 64.62901453 67.23764649 68.31686198 70 72 C70.33 48.24 70.66 24.48 71 0 C76.94 0 82.88 0 89 0 C89 34.98 89 69.96 89 106 C74 106 74 106 70.2265625 103.140625 C68.87329102 101.27783203 68.87329102 101.27783203 67.625 99.25 C66.90171509 98.22108643 66.90171509 98.22108643 66.16381836 97.17138672 C65.19103737 95.78326647 64.23759708 94.38136657 63.30517578 92.96582031 C61.50881939 90.26019711 59.5391802 87.70078291 57.5625 85.125 C56.84707031 84.16207031 56.13164063 83.19914062 55.39453125 82.20703125 C52.54876836 78.38155962 49.64896417 74.5977226 46.75 70.8125 C45.92689331 69.73730103 45.92689331 69.73730103 45.0871582 68.64038086 C43.39189698 66.42656915 41.69604906 64.21320818 40 62 C37.74930898 59.06302848 35.49942756 56.12543928 33.25 53.1875 C32.5089502 52.22130737 32.5089502 52.22130737 31.75292969 51.2355957 C27.12381457 45.18932699 22.56979014 39.09305353 18 33 C17.67 57.09 17.34 81.18 17 106 C11.39 106 5.78 106 0 106 C0 71.02 0 36.04 0 0 Z " fill="#143D32" transform="translate(1131,1124)"/>
<path d="M0 0 C15 0 15 0 19.17578125 3.48046875 C20.27109486 5.01516889 21.31576867 6.58701786 22.3125 8.1875 C22.88605225 9.0117749 23.45960449 9.8360498 24.05053711 10.68530273 C25.20280619 12.34145797 26.33688955 14.01043481 27.45117188 15.69238281 C29.51807233 18.77188204 31.76546732 21.65045535 34.0625 24.5625 C38.92330368 30.89266427 43.77122225 37.23269082 48.6171875 43.57421875 C50.9125649 46.57797179 53.20954632 49.58048795 55.5078125 52.58203125 C56.08233154 53.33258789 56.65685059 54.08314453 57.2487793 54.85644531 C58.33589083 56.27658985 59.42327175 57.69652823 60.51098633 59.11621094 C64.03665337 63.72324905 67.5188271 68.35843613 71 73 C71.33 48.91 71.66 24.82 72 0 C77.61 0 83.22 0 89 0 C89 34.98 89 69.96 89 106 C74 106 74 106 70.69921875 103.61328125 C70.03535156 102.52402344 69.37148437 101.43476562 68.6875 100.3125 C67.89715124 99.10460539 67.10544679 97.89759692 66.3125 96.69140625 C65.9309375 96.07281738 65.549375 95.45422852 65.15625 94.81689453 C63.35237339 91.98234011 61.26705746 89.38610569 59.1875 86.75 C58.35242768 85.66800657 57.51914219 84.58463211 56.6875 83.5 C56.25566406 82.93796875 55.82382813 82.3759375 55.37890625 81.796875 C50.01268586 74.80406656 44.66543666 67.79669187 39.31347656 60.79296875 C37.64664787 58.61185416 35.97957725 56.43092461 34.3125 54.25 C33.82676514 53.61416992 33.34103027 52.97833984 32.84057617 52.32324219 C27.90832418 45.87080346 22.95194407 39.43752729 18 33 C17.67 57.09 17.34 81.18 17 106 C11.39 106 5.78 106 0 106 C0 71.02 0 36.04 0 0 Z " fill="#133D32" transform="translate(86,1124)"/>
<path d="M0 0 C11.45515144 9.41980148 17.81156569 21.05782847 20.6875 35.4375 C22.18498994 52.50888533 18.70496339 68.91961939 7.6875 82.4375 C-3.54816456 94.12259114 -18.46709432 99.75890199 -34.5 100.25 C-49.72854951 99.78353993 -62.48027594 94.91117234 -73.625 84.5625 C-74.800625 83.2940625 -74.800625 83.2940625 -76 82 C-76.48210938 81.51144531 -76.96421875 81.02289062 -77.4609375 80.51953125 C-86.94680987 70.38361179 -90.38162107 56.06725844 -90.1484375 42.47265625 C-89.16237622 26.04695127 -83.07301076 13.68819928 -71.375 2.3125 C-51.77650684 -14.75041946 -20.90097746 -14.41018357 0 0 Z M-62.90625 17.96484375 C-70.60506803 26.98485724 -72.68580482 36.77536361 -72.31640625 48.453125 C-71.23814654 60.54028321 -65.65304307 69.53695397 -56.40625 77.2734375 C-47.97958984 83.31983976 -38.01226986 84.89591654 -27.8203125 83.59375 C-16.64345356 81.20480305 -8.6798631 75.18858996 -2 66 C3.75845031 55.61481794 4.72732767 43.88672538 2.19921875 32.34375 C-1.41899544 21.89942039 -7.46517767 14.50526832 -17.3125 9.4375 C-33.23674257 2.08945081 -50.73774193 5.42230367 -62.90625 17.96484375 Z " fill="#143D32" transform="translate(1052,1132)"/>
<path d="M0 0 C0.69609375 0.50144531 1.3921875 1.00289062 2.109375 1.51953125 C12.81381993 10.04574611 18.89846358 22.64444147 21 36 C21.94787547 53.66329473 19.16193597 69.05565827 7.25 82.875 C-3.5804198 94.14317629 -18.24845084 99.72220922 -33.75 100.3125 C-50.16602416 99.86952792 -63.79995941 94.33968954 -75.3671875 82.859375 C-87.35894363 69.83568733 -89.63821048 54.36950115 -89.13183594 37.41845703 C-88.36731444 23.3937349 -81.16334854 11.37909015 -71 2 C-50.68824785 -13.70775499 -21.03536252 -15.18812014 0 0 Z M-62 17 C-69.10787914 25.8917632 -72.72279804 35.69201631 -72.34765625 47.109375 C-70.93999381 58.8135346 -66.18047439 69.34417122 -56.83984375 76.72265625 C-47.07271794 83.50365442 -36.64544813 85.09772311 -25 83 C-14.11245692 80.06689908 -6.1640255 73.687927 -0.44140625 64.03515625 C5.1384211 52.28576369 5.08026153 41.09886244 1 29 C-1.981703 20.65725525 -8.26400189 13.6765243 -16.125 9.5625 C-31.71903158 2.38924547 -49.8665764 4.66053713 -62 17 Z " fill="#143D33" transform="translate(2155,1132)"/>
<path d="M0 0 C1.40958984 0.60134766 1.40958984 0.60134766 2.84765625 1.21484375 C17.11216264 8.13643968 24.86830535 19.50826149 30.08984375 34.03125 C34.36908106 48.70292078 32.69274054 64.20943528 25.8125 77.75 C18.27180329 90.81634295 7.57138645 99.64608723 -7 104 C-22.53969925 107.56882857 -37.98315287 106.54218493 -52.21875 98.79296875 C-65.43146042 90.27522425 -73.19107759 79.08772397 -77.54418945 64.13012695 C-80.04109756 52.46139465 -79.24225535 37.69144184 -74 27 C-73.649375 26.22140625 -73.29875 25.4428125 -72.9375 24.640625 C-66.20310919 11.07831018 -54.57693971 2.55626289 -40.5078125 -2.2734375 C-27.53037638 -6.03325544 -12.36310421 -5.35119436 0 0 Z M-51 23 C-58.78654585 32.19438115 -61.74688996 42.33950917 -61.3828125 54.28125 C-60.11721221 66.57565279 -54.59242745 75.67063663 -45.18359375 83.4609375 C-36.83182997 89.34751161 -26.81040429 90.93508589 -16.78515625 89.55859375 C-5.35950749 87.03717063 2.01763734 81.29636339 9 72 C14.91897197 60.72044964 16.39562048 50.32080644 13 38 C8.33190065 25.88375487 2.35216341 19.72491542 -9.23046875 14.1640625 C-23.62659591 8.11322203 -40.10520598 12.25415824 -51 23 Z " fill="#143D32" transform="translate(3388,1126)"/>
<path d="M0 0 C8.641875 -0.0825 17.28375 -0.165 26.1875 -0.25 C28.88832764 -0.28641602 31.58915527 -0.32283203 34.37182617 -0.36035156 C36.55386566 -0.37205278 38.735914 -0.38224119 40.91796875 -0.390625 C42.56714294 -0.4213208 42.56714294 -0.4213208 44.24963379 -0.45263672 C57.9368521 -0.45868031 70.03595362 3.81023591 80.25 13.03125 C90.6640448 23.91866047 94.8493699 37.86733673 95.3125 52.6875 C95.24680701 54.12727129 95.13898773 55.56544803 95 57 C94.9071875 57.99257812 94.814375 58.98515625 94.71875 60.0078125 C93.31665415 71.41332294 89.61189479 81.31414976 82 90 C81.24976562 90.90685547 81.24976562 90.90685547 80.484375 91.83203125 C72.03346569 101.2470006 61.17855756 103.39030909 49 106 C32.83 106 16.66 106 0 106 C0 71.02 0 36.04 0 0 Z M17 15 C17 39.75 17 64.5 17 90 C44.79519357 91.9119234 44.79519357 91.9119234 68 80 C76.50630228 69.92776479 78.02764141 58.76920355 77.22021484 46.00195312 C76.05862581 35.44205279 70.20515088 27.49856404 62.3671875 20.765625 C49.89014487 11.45931597 30.70475847 15 17 15 Z " fill="#133D32" transform="translate(2234,1124)"/>
<path d="M0 0 C9.343125 -0.0825 18.68625 -0.165 28.3125 -0.25 C32.70429565 -0.30462402 32.70429565 -0.30462402 37.18481445 -0.36035156 C39.53596262 -0.37204685 41.88711896 -0.38223668 44.23828125 -0.390625 C46.03235413 -0.4213208 46.03235413 -0.4213208 47.8626709 -0.45263672 C59.5928601 -0.45745751 68.32261845 2.2939297 76.83203125 10.4921875 C84.09691909 18.89589559 85.77136879 28.18628285 85 39 C83.60190065 47.60664829 79.5497852 54.41694825 72.68359375 59.82421875 C69.23867036 62.16812873 65.72986228 64.15188761 62 66 C62.31098129 66.45687698 62.62196259 66.91375397 62.94236755 67.38447571 C66.17457041 72.13454207 69.40182927 76.88793844 72.6262207 81.64331055 C73.83068046 83.41826116 75.03640379 85.192355 76.2434082 86.96557617 C77.97679182 89.5125743 79.70562753 92.06260573 81.43359375 94.61328125 C82.24611855 95.80405022 82.24611855 95.80405022 83.07505798 97.01887512 C83.57550125 97.75941635 84.07594452 98.49995758 84.59155273 99.26293945 C85.03345444 99.91357864 85.47535614 100.56421783 85.9306488 101.23457336 C87 103 87 103 88 106 C84.81447919 106.29307693 81.63242245 106.46871449 78.4375 106.625 C77.09461914 106.75068359 77.09461914 106.75068359 75.72460938 106.87890625 C72.87414502 106.98331886 70.72257001 106.86836088 68 106 C64.94363796 103.11288534 63.09385417 99.61720397 61 96 C59.47248445 93.71886988 57.93264467 91.45041778 56.37890625 89.1875 C55.57964035 87.99986697 54.78212507 86.811054 53.98632812 85.62109375 C52.76234367 83.79119359 51.5370635 81.96229249 50.3059082 80.13720703 C49.09661464 78.34441809 47.89333469 76.5477323 46.69140625 74.75 C45.98185791 73.69296875 45.27230957 72.6359375 44.54125977 71.546875 C43 69 43 69 43 67 C34.42 67 25.84 67 17 67 C17 79.87 17 92.74 17 106 C11.39 106 5.78 106 0 106 C0 71.02 0 36.04 0 0 Z M17 15 C17 26.88 17 38.76 17 51 C22.26669107 51.11527291 27.5289473 51.21465375 32.79589844 51.2746582 C34.58446136 51.29968775 36.37292317 51.33372244 38.16113281 51.37719727 C40.74309323 51.43836411 43.32369322 51.46632445 45.90625 51.48828125 C47.09112 51.52699089 47.09112 51.52699089 48.29992676 51.56648254 C54.34819207 51.56948729 58.28867726 49.76415452 63 46 C67.31789491 41.34995933 68.3803943 37.60840838 68.26953125 31.41015625 C67.71761597 26.47491381 65.95239698 22.61232783 62.09375 19.42578125 C56.0190271 15.4704113 51.1606104 14.85219305 43.953125 14.90234375 C43.26911621 14.90335083 42.58510742 14.90435791 41.88037109 14.90539551 C39.33689689 14.9106087 36.79344668 14.92456994 34.25 14.9375 C28.5575 14.958125 22.865 14.97875 17 15 Z " fill="#143D32" transform="translate(525,1124)"/>
<path d="M0 0 C5.61 0 11.22 0 17 0 C17 14.52 17 29.04 17 44 C34.82 44 52.64 44 71 44 C71 29.48 71 14.96 71 0 C76.61 0 82.22 0 88 0 C88 34.98 88 69.96 88 106 C82.39 106 76.78 106 71 106 C71 90.49 71 74.98 71 59 C53.18 59 35.36 59 17 59 C17 74.51 17 90.02 17 106 C11.39 106 5.78 106 0 106 C0 71.02 0 36.04 0 0 Z " fill="#143D32" transform="translate(3164,1124)"/>
<path d="M0 0 C25.08 0 50.16 0 76 0 C76 4.95 76 9.9 76 15 C56.53 15 37.06 15 17 15 C17 24.57 17 34.14 17 44 C34.16 44 51.32 44 69 44 C69 48.95 69 53.9 69 59 C51.84 59 34.68 59 17 59 C17 69.23 17 79.46 17 90 C36.47 90 55.94 90 76 90 C76 95.28 76 100.56 76 106 C50.92 106 25.84 106 0 106 C0 71.02 0 36.04 0 0 Z " fill="#143D32" transform="translate(3646,1124)"/>
<path d="M0 0 C5.94 0 11.88 0 18 0 C18.01458252 2.07337646 18.02916504 4.14675293 18.04418945 6.28295898 C18.09469635 13.16021668 18.16131909 20.03725178 18.23571491 26.91429043 C18.28029928 31.08077977 18.31958108 35.24717403 18.34643555 39.41381836 C18.37258841 43.44053293 18.41307379 47.4668792 18.46318626 51.49336433 C18.47977445 53.02376765 18.49133856 54.55423454 18.49761391 56.08471489 C18.54516901 66.62385461 18.60704883 76.43968193 26.21484375 84.49609375 C32.45051752 89.7493419 40.02212856 91.10360872 48 91 C55.4417482 90.24063794 60.41778414 87.64226739 65.6875 82.25 C72.99815168 71.97557062 72.16174421 59.67913049 72.31640625 47.55859375 C72.33702144 46.18139589 72.35801895 44.80420371 72.37937927 43.42701721 C72.43412927 39.83178351 72.48374264 36.23649725 72.53222656 32.64117432 C72.58278914 28.96060606 72.6382923 25.28011251 72.69335938 21.59960938 C72.80036365 14.39980155 72.90147498 7.19992977 73 0 C78.61 0 84.22 0 90 0 C90.06809495 9.04999311 90.12299874 18.09981279 90.15543652 27.15000534 C90.17101422 31.35351927 90.1921059 35.55684706 90.22631836 39.76025391 C90.25919645 43.82570444 90.27691219 47.89097725 90.28463173 51.9565506 C90.29012469 53.49850507 90.30084923 55.04045113 90.31719017 56.5823288 C90.47330544 71.94010414 88.47124154 85.07982058 77.75 96.8125 C68.54988629 105.33112381 54.98078161 108.73733861 42.6328125 108.2890625 C29.27145341 106.82208836 17.97769657 103.39353402 9 93 C0.53982618 79.7789679 -0.31090707 66.57175844 -0.1953125 51.171875 C-0.19157205 49.68687126 -0.18872997 48.20186502 -0.18673706 46.71685791 C-0.17918172 42.8502901 -0.15960519 38.98387788 -0.1373291 35.11737061 C-0.11669383 31.15509138 -0.10769794 27.19278647 -0.09765625 23.23046875 C-0.07634969 15.48690077 -0.04123603 7.7434922 0 0 Z " fill="#143D32" transform="translate(236,1124)"/>
<path d="M0 0 C6.76014557 -1.68311001 13.42987977 -2.92674467 20 0 C25.93809175 5.9468852 29.51778338 14.00730086 33.209198 21.48019409 C36.2500501 27.63147042 39.81514046 33.40165527 43.5 39.1875 C44.5742868 40.90930214 45.64735058 42.63186844 46.71875 44.35546875 C47.4787577 45.57056839 48.2389986 46.78552245 49 48 C53.85134312 40.3236733 58.64128514 32.6122005 63.34375 24.84375 C63.7210878 24.22058899 64.0984256 23.59742798 64.48719788 22.9553833 C66.39375929 19.80523405 68.29713226 16.65320093 70.19702148 13.49902344 C70.91124565 12.31702712 71.6255177 11.13505974 72.33984375 9.953125 C72.97269287 8.90286133 73.60554199 7.85259766 74.25756836 6.77050781 C74.8325708 5.85624023 75.40757324 4.94197266 76 4 C76.47872559 3.22527344 76.95745117 2.45054688 77.45068359 1.65234375 C79 0 79 0 81.0847168 -0.45410156 C82.25514526 -0.42268066 82.25514526 -0.42268066 83.44921875 -0.390625 C84.29677734 -0.37773438 85.14433594 -0.36484375 86.01757812 -0.3515625 C86.89865234 -0.31804687 87.77972656 -0.28453125 88.6875 -0.25 C90.02651367 -0.22292969 90.02651367 -0.22292969 91.39257812 -0.1953125 C93.59613504 -0.14817759 95.79752601 -0.08240657 98 0 C96.26843555 4.99451249 93.54259205 9.31806275 90.8125 13.8125 C90.28930176 14.67907227 89.76610352 15.54564453 89.22705078 16.43847656 C83.85038309 25.30989958 78.3519352 34.10538036 72.8359375 42.890625 C72.24119629 43.86257813 71.64645508 44.83453125 71.03369141 45.8359375 C69.53636416 48.16551266 68.01570493 50.33590898 66.35302734 52.5390625 C58.28281823 63.61833841 57.60071859 73.05784664 57.875 86.5 C57.87694746 88.40234454 57.87436981 90.30469928 57.8671875 92.20703125 C57.8511676 96.80874749 57.92725205 101.39548269 58 106 C52.06 106 46.12 106 40 106 C40.13535156 101.96072266 40.13535156 101.96072266 40.2734375 97.83984375 C40.71605523 76.8005013 40.43013188 61.53278226 26.92089844 44.5078125 C23.70891378 40.31443344 21.08456625 35.77697337 18.375 31.25 C15.13155898 25.98507478 11.84714574 20.74727289 8.51953125 15.53515625 C7.96023926 14.65762695 7.40094727 13.78009766 6.82470703 12.87597656 C5.75564304 11.20207678 4.68257258 9.53072716 3.60498047 7.86230469 C3.1307666 7.12012695 2.65655273 6.37794922 2.16796875 5.61328125 C1.74797607 4.96141846 1.3279834 4.30955566 0.89526367 3.63793945 C0 2 0 2 0 0 Z " fill="#143D32" transform="translate(2369,1124)"/>
<path d="M0 0 C30.03 0 60.06 0 91 0 C91 4.95 91 9.9 91 15 C78.79 15 66.58 15 54 15 C54 45.03 54 75.06 54 106 C48.39 106 42.78 106 37 106 C37 75.97 37 45.94 37 15 C24.79 15 12.58 15 0 15 C0 10.05 0 5.1 0 0 Z " fill="#133D32" transform="translate(742,1124)"/>
<path d="M0 0 C30.03 0 60.06 0 91 0 C91 4.95 91 9.9 91 15 C78.79 15 66.58 15 54 15 C54 45.03 54 75.06 54 106 C48.39 106 42.78 106 37 106 C37 75.97 37 45.94 37 15 C24.79 15 12.58 15 0 15 C0 10.05 0 5.1 0 0 Z " fill="#133D32" transform="translate(379,1124)"/>
<path d="M0 0 C0.6909375 0.25523437 1.381875 0.51046875 2.09375 0.7734375 C12.86696231 5.43327933 20.66941441 14.75221127 24.9921875 25.45703125 C29.83021049 39.3490687 29.84703759 55.55918233 23.60546875 69.00390625 C17.23260583 81.12041271 9.01967605 88.46103037 -4 93 C-18.01368988 96.52523706 -32.44968941 95.41221735 -45.125 88.3125 C-56.44614243 81.05490242 -62.50308272 71.54830235 -65.875 58.5625 C-68.80175139 43.94616419 -67.14459843 28.72593505 -59 16 C-45.60750999 -2.41467377 -20.93118779 -8.02362199 0 0 Z M-52.39453125 19.65625 C-59.47853212 29.99785711 -61.68165985 42.68904509 -59.46875 54.94140625 C-56.52968968 66.42610392 -51.42886351 75.76894489 -41.25 82.3125 C-30.8649664 88.07847175 -19.99285458 89.60537914 -8.4375 86.875 C1.3553536 83.86181428 9.18718274 78.49963057 15 70 C21.29209716 57.69754138 23.15602124 44.71446589 19.5 31.25 C15.33118976 19.38492472 7.87464897 11.82656347 -3.00390625 5.91015625 C-20.64292294 -1.58038508 -40.65029534 5.6814155 -52.39453125 19.65625 Z " fill="#163C31" transform="translate(3874,258)"/>
<path d="M0 0 C5.94 0 11.88 0 18 0 C18 34.98 18 69.96 18 106 C12.06 106 6.12 106 0 106 C0 71.02 0 36.04 0 0 Z " fill="#123D33" transform="translate(887,1124)"/>
<path d="M0 0 C5.61 0 11.22 0 17 0 C17 34.98 17 69.96 17 106 C11.39 106 5.78 106 0 106 C0 71.02 0 36.04 0 0 Z " fill="#133D32" transform="translate(670,1124)"/>
<path d="M0 0 C3.63 0 7.26 0 11 0 C11 43.56 11 87.12 11 132 C7.37 132 3.74 132 0 132 C0 88.44 0 44.88 0 0 Z " fill="#123E32" transform="translate(2818,1112)"/>
<path d="M0 0 C3.63 0 7.26 0 11 0 C11 43.56 11 87.12 11 132 C7.37 132 3.74 132 0 132 C0 88.44 0 44.88 0 0 Z " fill="#133D31" transform="translate(1585,1112)"/>
<path d="M0 0 C0.969375 -0.020625 1.93875 -0.04125 2.9375 -0.0625 C10.5317073 -0.10332907 16.78729313 1.07080249 23.375 4.9375 C27.12792711 9.02156774 28.30169104 13.36606487 28.875 18.8125 C28.14565051 25.49820363 25.61462469 29.92224065 20.5 34.25 C19.84 34.25 19.18 34.25 18.5 34.25 C18.77263672 34.7440332 19.04527344 35.23806641 19.32617188 35.74707031 C20.55948803 37.9933923 21.77982136 40.24651692 23 42.5 C23.42925781 43.27730469 23.85851563 44.05460937 24.30078125 44.85546875 C24.70683594 45.60957031 25.11289063 46.36367188 25.53125 47.140625 C26.09682617 48.17751465 26.09682617 48.17751465 26.67382812 49.23535156 C27.5 51.25 27.5 51.25 27.5 55.25 C24.86 55.25 22.22 55.25 19.5 55.25 C18.18144905 53.00335738 16.87006028 50.75302694 15.5625 48.5 C15.18931641 47.86578125 14.81613281 47.2315625 14.43164062 46.578125 C12.60200459 43.41334916 11.39458638 40.82834553 10.5 37.25 C5.88 37.25 1.26 37.25 -3.5 37.25 C-3.5 43.19 -3.5 49.13 -3.5 55.25 C-6.14 55.25 -8.78 55.25 -11.5 55.25 C-11.52526605 47.57788798 -11.54283123 39.9057866 -11.55493164 32.23364258 C-11.55997377 29.62133381 -11.56680725 27.00902789 -11.57543945 24.39672852 C-11.58751036 20.65119732 -11.59322935 16.90570328 -11.59765625 13.16015625 C-11.60281754 11.98413345 -11.60797882 10.80811066 -11.61329651 9.59645081 C-11.61340981 7.97488319 -11.61340981 7.97488319 -11.61352539 6.32055664 C-11.615746 5.36347305 -11.61796661 4.40638947 -11.62025452 3.42030334 C-11.32464527 -1.91472905 -4.08223536 0.02104245 0 0 Z M-3.5 9.25 C-3.59860131 10.65348735 -3.63078937 12.06180477 -3.6328125 13.46875 C-3.63410156 14.31824219 -3.63539063 15.16773438 -3.63671875 16.04296875 C-3.63285156 16.93628906 -3.62898438 17.82960938 -3.625 18.75 C-3.62886719 19.64332031 -3.63273437 20.53664063 -3.63671875 21.45703125 C-3.63542969 22.30652344 -3.63414062 23.15601563 -3.6328125 24.03125 C-3.63168457 24.81564453 -3.63055664 25.60003906 -3.62939453 26.40820312 C-3.70107442 28.26752988 -3.70107442 28.26752988 -2.5 29.25 C-0.08646168 29.43153617 2.27124819 29.52814571 4.6875 29.5625 C6.65783203 29.61857422 6.65783203 29.61857422 8.66796875 29.67578125 C13.04573321 29.18936298 15.11892141 28.01172185 18.5 25.25 C20.4417322 22.12634385 20.50483969 20.3879311 20.375 16.6875 C19.41739895 12.92549589 18.54596876 11.57927023 15.5 9.25 C11.90523628 8.05174543 8.61450601 8.10391256 4.875 8.125 C4.18148437 8.12113281 3.48796875 8.11726563 2.7734375 8.11328125 C-0.65070421 7.81545834 -0.65070421 7.81545834 -3.5 9.25 Z " fill="#163C31" transform="translate(3847.5,275.75)"/>
<path d="M0 0 C0 3 0 3 -1.53125 4.82421875 C-2.1809375 5.43910156 -2.830625 6.05398438 -3.5 6.6875 C-4.1496875 7.31011719 -4.799375 7.93273437 -5.46875 8.57421875 C-5.9740625 9.04472656 -6.479375 9.51523437 -7 10 C-7 7 -7 7 -4.625 4.4375 C-3.75875 3.633125 -2.8925 2.82875 -2 2 C-1.34 1.34 -0.68 0.68 0 0 Z " fill="#1E3733" transform="translate(2264,304)"/>
</svg>
