<?xml version="1.0" encoding="UTF-8"?>
<svg version="1.1" xmlns="http://www.w3.org/2000/svg" width="533" height="468">
<path d="M0 0 C2.37109375 2.12890625 2.37109375 2.12890625 4 4 C4 4.66 4 5.32 4 6 C4.66 6 5.32 6 6 6 C6.79807198 7.68448018 7.58812301 9.37276127 8.375 11.0625 C8.81585938 12.00222656 9.25671875 12.94195312 9.7109375 13.91015625 C12.18196897 19.83314382 13.26154642 24.95315605 13.1875 31.375 C13.17332031 32.67824219 13.15914063 33.98148438 13.14453125 35.32421875 C13.02643962 38.3275762 12.78424957 41.2142772 12.375 44.1875 C11.94909532 48.49895285 11.94909532 48.49895285 14 52 C17.51252644 54.43166021 20.51674372 55.52967045 24.703125 56.28125 C25.7653125 56.48363281 26.8275 56.68601562 27.921875 56.89453125 C30.15575113 57.3009289 32.39013616 57.70453832 34.625 58.10546875 C36.21054687 58.40904297 36.21054687 58.40904297 37.828125 58.71875 C38.7965332 58.89341797 39.76494141 59.06808594 40.76269531 59.24804688 C41.50100586 59.49619141 42.23931641 59.74433594 43 60 C43.33 60.99 43.66 61.98 44 63 C44.66 63 45.32 63 46 63 C46 62.34 46 61.68 46 61 C61.91437937 61.75030573 61.91437937 61.75030573 69.73046875 63.5390625 C72.06448017 64.0130958 74.31281147 64.21176445 76.6875 64.375 C90.50691728 65.65698997 104.83638371 70.10272657 114 81 C114 81.66 114 82.32 114 83 C114.66 83 115.32 83 116 83 C116.33 85.31 116.66 87.62 117 90 C117.99 90.33 118.98 90.66 120 91 C123.64063811 107.1553316 120.64886613 120.30104389 112.10693359 134.31103516 C109.5306104 138.24200204 106.55742028 141.91857257 103 145 C102.34 145 101.68 145 101 145 C100.77699219 145.56332031 100.55398438 146.12664062 100.32421875 146.70703125 C93.27666315 158.91032073 74.32616109 167.33713886 62 173 C61.00355469 173.46921875 60.00710938 173.9384375 58.98046875 174.421875 C52.11300199 177.52382739 45.20623754 180.00671904 38 182.1875 C37.21834473 182.42525146 36.43668945 182.66300293 35.63134766 182.90795898 C6.41433321 191.46578247 -24.69306306 192.78417575 -54.875 190 C-67.47436197 188.84606805 -80.04375008 188.7719913 -92.6875 188.75 C-93.68013855 188.74500488 -94.6727771 188.74000977 -95.69549561 188.73486328 C-110.85110165 188.67216037 -125.31950167 189.45248148 -140.0625 193.3125 C-140.90828613 193.5305127 -141.75407227 193.74852539 -142.62548828 193.97314453 C-159.51003056 198.4289211 -174.66761188 205.04979085 -188.67138672 215.53173828 C-190.3844988 216.77941086 -192.1882494 217.90045481 -194 219 C-196.21240234 218.62890625 -196.21240234 218.62890625 -198 218 C-199.1257469 220.08293277 -200.25062083 222.16632908 -201.375 224.25 C-202.00148437 225.41015625 -202.62796875 226.5703125 -203.2734375 227.765625 C-205.3310249 231.62010999 -207.246162 235.49327073 -209.0234375 239.484375 C-209.59578125 240.76441406 -209.59578125 240.76441406 -210.1796875 242.0703125 C-210.96945295 243.84083244 -211.75852835 245.61166036 -212.546875 247.3828125 C-214.30078866 251.30263297 -216.07351242 255.18364037 -218.05859375 258.9921875 C-220.40572627 263.6210598 -222.03273981 268.46479656 -223.6875 273.375 C-224.29450183 275.15401165 -224.90252407 276.93267556 -225.51171875 278.7109375 C-225.77428467 279.48743652 -226.03685059 280.26393555 -226.30737305 281.06396484 C-227 283 -227 283 -228 285 C-228.66 285 -229.32 285 -230 285 C-229.9071875 286.0828125 -229.9071875 286.0828125 -229.8125 287.1875 C-230.04065091 290.60976367 -230.86524687 292.33155859 -233 295 C-234.32 295 -235.64 295 -237 295 C-237.55961972 277.38317135 -228.43452096 258.83324066 -220.04296875 243.73046875 C-217.8513605 239.78136938 -215.86311435 235.74182468 -213.875 231.6875 C-210.87473667 225.60181784 -207.63867983 219.73367731 -204 214 C-204.99 214 -205.98 214 -207 214 C-206.71096738 212.49949022 -206.41860081 210.99962262 -206.125 209.5 C-205.96257812 208.6646875 -205.80015625 207.829375 -205.6328125 206.96875 C-205.1562862 204.7331945 -204.57861039 202.51884695 -203.953125 200.3203125 C-200.66709302 187.25625659 -202.21473212 172.42906211 -207 160 C-207.50853516 158.55560547 -207.50853516 158.55560547 -208.02734375 157.08203125 C-211.97157501 146.6810513 -217.93483183 136.78185697 -224.30859375 127.6796875 C-226 125 -226 125 -226 122 C-226.66 122 -227.32 122 -228 122 C-244.90300519 99.14872319 -247.47989767 69.36175636 -244 42 C-241.82366036 31.34088199 -235.63295093 20.57218199 -227 14 C-226.2575 13.195625 -225.515 12.39125 -224.75 11.5625 C-213.27470096 0.86960772 -197.47001712 -3.35766513 -182.25 -3.375 C-181.13367188 -3.39949219 -180.01734375 -3.42398438 -178.8671875 -3.44921875 C-167.97430431 -3.48730575 -159.46243261 -0.00396077 -149.9375 4.9375 C-149.24906006 5.28232422 -148.56062012 5.62714844 -147.85131836 5.98242188 C-144.9462462 7.44332057 -142.12302832 8.92433214 -139.3515625 10.62890625 C-131.95228011 15.06089962 -123.36941523 15.70132991 -115 14 C-110.84330602 12.51028946 -107.12994963 10.32094176 -103.37109375 8.03125 C-99.84796865 5.90839362 -96.38552754 4.39618614 -92.5390625 2.984375 C-90.23729256 2.0919965 -88.01874102 1.10614075 -85.7734375 0.08203125 C-59.02884127 -11.87353501 -25.0849032 -18.38148322 0 0 Z M-63.72094727 1.32299805 C-67.06176125 2.46271501 -69.41221252 3 -73 3 C-73.99 1.515 -73.99 1.515 -75 0 C-76.15811388 2.94729537 -76.15811388 2.94729537 -76 6 C-77.3303125 6.3403125 -77.3303125 6.3403125 -78.6875 6.6875 C-86.0772875 8.82032485 -93.69772269 11.26881371 -100.125 15.5625 C-110.56452112 22.52950672 -121.37708987 23.76110587 -133.47802734 21.81591797 C-139.2992371 20.46734712 -144.34833799 17.86860107 -149.625 15.125 C-166.48133276 6.55080103 -178.24108871 1.82512792 -197 7 C-199.99928258 8.1753461 -202.85850362 9.45822764 -205.73046875 10.9140625 C-208 12 -208 12 -210.23828125 12.5234375 C-210.81964844 12.68070313 -211.40101563 12.83796875 -212 13 C-212.33 13.66 -212.66 14.32 -213 15 C-213.99 15.33 -214.98 15.66 -216 16 C-216 16.66 -216 17.32 -216 18 C-217.65 18.66 -219.3 19.32 -221 20 C-221 20.66 -221 21.32 -221 22 C-221.66 22 -222.32 22 -223 22 C-234.44319783 34.99338473 -236.94815494 51.6652349 -236.19970703 68.34716797 C-235.22069677 81.35196682 -231.93589626 93.96369559 -227 106 C-226.34 106 -225.68 106 -225 106 C-224.76796875 106.84304687 -224.5359375 107.68609375 -224.296875 108.5546875 C-222.78566738 112.56940171 -220.70856176 115.64264232 -218.25 119.125 C-213.87215175 125.50583151 -210.29763885 131.99251744 -207 139 C-205.92084333 141.14793684 -204.83753828 143.29379473 -203.75 145.4375 C-198.59836543 155.61613282 -194.88978104 167.45372285 -196 179 C-196.66 179.99 -197.32 180.98 -198 182 C-198 183.32 -198 184.64 -198 186 C-197.34 186.33 -196.68 186.66 -196 187 C-197 193 -198 199 -199 205 C-196.04290895 202.38060145 -194.26260176 199.31464575 -192.25 195.9375 C-188.72911869 190.11214457 -184.97355694 184.52460331 -181 179 C-180.11280878 177.75684746 -179.22612608 176.51333192 -178.33984375 175.26953125 C-175.89740943 171.84335057 -173.44983309 168.42089369 -171 165 C-171.99 163.02 -171.99 163.02 -173 161 C-173.66 161 -174.32 161 -175 161 C-175.10546143 160.4423999 -175.21092285 159.8847998 -175.31958008 159.31030273 C-178.90347172 139.81399976 -178.90347172 139.81399976 -183.0625 120.4375 C-185.25715586 110.67128141 -186.21611182 100.85948169 -186.36328125 90.86328125 C-186.70967691 87.81283617 -186.70967691 87.81283617 -189.359375 86.2890625 C-190.23078125 85.86367187 -191.1021875 85.43828125 -192 85 C-201.96591562 76.20942578 -205.86330584 62.79441798 -207 50 C-206.67863633 44.0624237 -204.9852215 39.15629168 -202 34 C-201.34 34 -200.68 34 -200 34 C-200.144375 35.27875 -200.28875 36.5575 -200.4375 37.875 C-200.52515625 38.70386719 -200.6128125 39.53273437 -200.703125 40.38671875 C-200.89082579 42.03897968 -201.10610715 43.68854315 -201.359375 45.33203125 C-202.6171443 54.36101804 -202.29509234 64.19380862 -197.1875 72 C-196.15364626 73.35566606 -195.09224014 74.69091807 -194 76 C-193.5153125 76.62003906 -193.030625 77.24007812 -192.53125 77.87890625 C-191.40276206 79.29279667 -190.20826536 80.65364717 -189 82 C-188.67 82 -188.34 82 -188 82 C-187.97083496 81.10917725 -187.94166992 80.21835449 -187.91162109 79.30053711 C-186.75773586 47.7929465 -186.75773586 47.7929465 -180 35 C-180 34.34 -180 33.68 -180 33 C-177.03 32.505 -177.03 32.505 -174 32 C-174.3080144 34.62559844 -174.62120182 37.25039806 -174.9375 39.875 C-175.02451172 40.62136719 -175.11152344 41.36773437 -175.20117188 42.13671875 C-175.88671875 47.7734375 -175.88671875 47.7734375 -177 50 C-177.27690264 52.68991132 -177.44592722 55.37981504 -177.62109375 58.078125 C-178 61 -178 61 -178.99609375 63.65356445 C-180.18615141 67.6205198 -180.37757018 71.35937637 -180.44140625 75.46484375 C-180.45785187 76.28289993 -180.47429749 77.10095612 -180.49124146 77.94380188 C-180.5331519 80.60853719 -180.55186868 83.27246286 -180.5625 85.9375 C-180.56778717 86.84761841 -180.57307434 87.75773682 -180.57852173 88.69543457 C-180.60645904 105.12689918 -178.31488099 119.9010742 -173.89916992 135.70043945 C-172.68337341 140.16188119 -171.65911211 144.65933909 -170.64257812 149.16967773 C-169.81940123 152.7954717 -168.91834058 156.39727928 -168 160 C-165.62766553 157.71552977 -163.44864593 155.36609958 -161.375 152.8125 C-159 150 -159 150 -157 149 C-156.67 149.66 -156.34 150.32 -156 151 C-154.45833358 149.62514468 -154.45833358 149.62514468 -153 148 C-153 147.34 -153 146.68 -153 146 C-153.66 146 -154.32 146 -155 146 C-154.4946875 145.44570312 -153.989375 144.89140625 -153.46875 144.3203125 C-152.49421875 143.23363281 -152.49421875 143.23363281 -151.5 142.125 C-150.52546875 141.04605469 -150.52546875 141.04605469 -149.53125 139.9453125 C-147.79382728 138.15068902 -147.79382728 138.15068902 -148 136 C-147.34 136 -146.68 136 -146 136 C-142.97482091 132.94441577 -142.97482091 132.94441577 -142 129 C-141.34 129 -140.68 129 -140 129 C-138.63636792 127.02053408 -137.30581356 125.0180755 -136 123 C-135 122 -134 121 -133 120 C-133 119.34 -133 118.68 -133 118 C-132.34 118 -131.68 118 -131 118 C-129.365311 116.34551316 -129.365311 116.34551316 -127.6875 114.25 C-125.01237765 111.08238651 -122.26074314 108.56907035 -119 106 C-119 105.34 -119 104.68 -119 104 C-117.68 103.34 -116.36 102.68 -115 102 C-116.16975393 99.46553315 -117.47225558 97.31308279 -119.0625 95 C-120.6901836 92.47971572 -121.55341928 90.90277468 -122 88 C-122.66 88 -123.32 88 -124 88 C-131.0391175 63.52021192 -131.0391175 63.52021192 -126 54 C-125.01 53.67 -124.02 53.34 -123 53 C-123.02094727 53.77601563 -123.04189453 54.55203125 -123.06347656 55.3515625 C-123.14712759 58.90090748 -123.19881629 62.45004435 -123.25 66 C-123.28351563 67.22074219 -123.31703125 68.44148438 -123.3515625 69.69921875 C-123.42871064 76.83542201 -123.04996458 82.03083578 -119 88 C-118.30003906 89.1446875 -118.30003906 89.1446875 -117.5859375 90.3125 C-116.43898393 91.9108353 -115.22109454 93.4575648 -114 95 C-113.34 95 -112.68 95 -112 95 C-112 95.66 -112 96.32 -112 97 C-111.34 97 -110.68 97 -110 97 C-110 96.34 -110 95.68 -110 95 C-109.34 95 -108.68 95 -108 95 C-104.97482091 91.94441577 -104.97482091 91.94441577 -104 88 C-103.47921875 87.773125 -102.9584375 87.54625 -102.421875 87.3125 C-99.12315465 85.52480639 -96.21542579 83.28109676 -93.25 81 C-92.34701172 80.32324219 -92.34701172 80.32324219 -91.42578125 79.6328125 C-89.91093644 78.47177498 -88.45030179 77.24072061 -87 76 C-87 75.34 -87 74.68 -87 74 C-85.68 73.67 -84.36 73.34 -83 73 C-83 72.34 -83 71.68 -83 71 C-82.45214844 70.75378906 -81.90429688 70.50757813 -81.33984375 70.25390625 C-77.50579392 68.19926519 -74.1951835 65.42411193 -70.75390625 62.77734375 C-68.04018214 61.02593315 -66.17440759 60.37447639 -63 60 C-65.33452813 65.4697067 -68.63257823 69.20760338 -72.6875 73.4375 C-73.31092285 74.09693604 -73.9343457 74.75637207 -74.57666016 75.43579102 C-78.82698735 79.88974983 -83.18229175 84.1548105 -88 88 C-85.2250098 90.7749902 -82.4979239 91.84590517 -78.59664917 92.24723816 C-77.34780441 92.24510063 -77.34780441 92.24510063 -76.07373047 92.24291992 C-75.1227951 92.24599655 -74.17185974 92.24907318 -73.19210815 92.25224304 C-72.17738434 92.24505753 -71.16266052 92.23787201 -70.1171875 92.23046875 C-68.5403569 92.22978142 -68.5403569 92.22978142 -66.93167114 92.2290802 C-64.7143643 92.22606445 -62.49705945 92.21819845 -60.27978516 92.20581055 C-56.88045782 92.18752935 -53.48140267 92.18530115 -50.08203125 92.18554688 C-47.92708097 92.18063229 -45.77213254 92.17480423 -43.6171875 92.16796875 C-42.59841522 92.16685593 -41.57964294 92.1657431 -40.52999878 92.16459656 C-39.58536774 92.15821671 -38.64073669 92.15183685 -37.66748047 92.14526367 C-36.42102249 92.13954597 -36.42102249 92.13954597 -35.14938354 92.13371277 C-32.81447498 92.08077726 -32.81447498 92.08077726 -30 91 C-27.27102562 90.61496448 -24.54871837 90.2601109 -21.8125 89.9375 C-20.68811523 89.80118164 -20.68811523 89.80118164 -19.54101562 89.66210938 C-17.69434465 89.4386269 -15.84721446 89.21894487 -14 89 C-14 90.32 -14 91.64 -14 93 C-15.97876831 93.31501257 -17.95804006 93.6268631 -19.9375 93.9375 C-21.59072266 94.19853516 -21.59072266 94.19853516 -23.27734375 94.46484375 C-31.13006199 95.5937235 -38.74894764 96.16466541 -46.6875 96.125 C-47.67556641 96.12161621 -48.66363281 96.11823242 -49.68164062 96.11474609 C-56.79192486 96.06627713 -63.89506351 95.90367227 -71 95.625 C-71.90065186 95.59422363 -72.80130371 95.56344727 -73.72924805 95.53173828 C-78.81074464 95.30025909 -83.17277568 94.61321121 -88 93 C-90.54051214 92.02389158 -90.54051214 92.02389158 -93 92 C-97.15080511 94.59425319 -100.06407025 98.14134947 -103 102 C-103 102.66 -103 103.32 -103 104 C-104.98 104.99 -104.98 104.99 -107 106 C-107 106.66 -107 107.32 -107 108 C-107.55171875 108.2475 -108.1034375 108.495 -108.671875 108.75 C-111.45136707 110.24234474 -113.7814707 112.03672523 -116.25 114 C-117.14203125 114.70125 -118.0340625 115.4025 -118.953125 116.125 C-119.62859375 116.74375 -120.3040625 117.3625 -121 118 C-121 118.66 -121 119.32 -121 120 C-121.66 120 -122.32 120 -123 120 C-123 120.66 -123 121.32 -123 122 C-123.66 122 -124.32 122 -125 122 C-126.58533702 123.71332754 -128.09541215 125.49689047 -129.5625 127.3125 C-130.36816406 128.29863281 -131.17382812 129.28476563 -132.00390625 130.30078125 C-134.13643993 132.89295622 -134.13643993 132.89295622 -135 136 C-135.66 136 -136.32 136 -137 136 C-137 136.66 -137 137.32 -137 138 C-137.66 138 -138.32 138 -139 138 C-140.47625203 139.45626572 -140.47625203 139.45626572 -141.9375 141.3125 C-143.46619303 143.17742731 -144.94126352 144.94424782 -146.69140625 146.60546875 C-148.2280936 147.92434559 -148.2280936 147.92434559 -148 150 C-148.66 150 -149.32 150 -150 150 C-150 150.66 -150 151.32 -150 152 C-150.66 152 -151.32 152 -152 152 C-153.3302109 153.51227067 -154.59027591 155.08669024 -155.8125 156.6875 C-157.89229975 159.40290586 -159.91848808 161.9203712 -162.3671875 164.3125 C-165.71710497 167.73200033 -168.48041188 171.46182368 -171.3125 175.3125 C-171.86228516 176.05306641 -172.41207031 176.79363281 -172.97851562 177.55664062 C-174.32272179 179.36839676 -175.66308744 181.182859 -177 183 C-176.67 183.66 -176.34 184.32 -176 185 C-174.02 184.01 -174.02 184.01 -172 183 C-172 182.34 -172 181.68 -172 181 C-170.9275 181.0825 -169.855 181.165 -168.75 181.25 C-164.98087896 181.37581372 -164.98087896 181.37581372 -162.75 179.0625 C-162.1725 178.381875 -161.595 177.70125 -161 177 C-160.01 176.67 -159.02 176.34 -158 176 C-158 175.34 -158 174.68 -158 174 C-157.01 173.7525 -156.02 173.505 -155 173.25 C-152.25513631 172.47584267 -149.92128434 171.48548883 -147.42578125 170.11328125 C-142.53916773 167.62532465 -137.48054337 166.29459681 -132.1875 164.9375 C-131.26646484 164.69451172 -130.34542969 164.45152344 -129.39648438 164.20117188 C-127.5398356 163.71134921 -125.68233033 163.22476132 -123.82397461 162.74145508 C-120.02301958 161.74348668 -116.23451684 160.70183934 -112.44628906 159.65673828 C-101.8050604 156.79996133 -90.94054832 155.99054164 -80 155 C-79.67 156.98 -79.34 158.96 -79 161 C-79.72960937 161.04898438 -80.45921875 161.09796875 -81.2109375 161.1484375 C-84.12296171 161.35695281 -87.03262045 161.58527944 -89.94189453 161.82910156 C-91.3357409 161.94484207 -92.72997102 162.05603547 -94.12451172 162.16308594 C-104.00942609 162.94539304 -112.95290758 164.57071724 -122.3359375 167.7890625 C-125.55917775 168.85431248 -128.68203179 169.62386509 -132 170.3125 C-138.00231012 171.71413835 -143.18153997 174.39169657 -148.5703125 177.30786133 C-152.07021446 179.17764212 -153.94220328 180 -158 180 C-159.13234133 181.13234133 -160.25610257 182.27451262 -161.3359375 183.45703125 C-163.44340538 185.41113879 -165.72824262 186.76405435 -168.1875 188.25 C-175.68210695 192.89483083 -182.70997995 198.16246338 -187 206 C-186.34 206 -185.68 206 -185 206 C-185 205.34 -185 204.68 -185 204 C-183.68 203.67 -182.36 203.34 -181 203 C-181 202.34 -181 201.68 -181 201 C-180.46761719 200.90460938 -179.93523437 200.80921875 -179.38671875 200.7109375 C-176.24690134 199.77567274 -173.6620417 198.23871895 -170.8125 196.625 C-162.83890259 192.27657678 -157.07849147 190 -148 190 C-147.55011719 189.53722656 -147.10023438 189.07445312 -146.63671875 188.59765625 C-136.66703187 178.86590939 -109.99178052 181.72209489 -97.13085938 181.79418945 C-93.74341335 181.81253567 -90.35624077 181.81469789 -86.96875 181.81445312 C-84.786456 181.81936694 -82.60416382 181.82519466 -80.421875 181.83203125 C-78.92463898 181.83370049 -78.92463898 181.83370049 -77.39715576 181.83540344 C-72.93692676 181.86519693 -68.56160542 181.99982624 -64.12792969 182.5 C-57.93382308 183.18222071 -51.75721112 183.16221593 -45.53125 183.16796875 C-44.2563269 183.17129715 -42.98140381 183.17462555 -41.66784668 183.17805481 C-38.97839853 183.18309727 -36.28905156 183.18589918 -33.59960938 183.18530273 C-30.8807912 183.18522182 -28.16214274 183.19211494 -25.44335938 183.20581055 C0.31230648 184.11245318 0.31230648 184.11245318 25.18640137 178.71147156 C27.36076548 177.85847233 29.55275853 177.2273267 31.8125 176.640625 C49.32457127 171.9538227 64.40435378 165.17600165 80 156 C80.97582031 155.45859375 81.95164062 154.9171875 82.95703125 154.359375 C83.63121094 153.91078125 84.30539062 153.4621875 85 153 C85 152.34 85 151.68 85 151 C85.56203125 150.7421875 86.1240625 150.484375 86.703125 150.21875 C89.26704579 148.85830223 91.45226365 147.27211038 93.75 145.5 C94.54921875 144.8915625 95.3484375 144.283125 96.171875 143.65625 C97.07679688 142.83640625 97.07679688 142.83640625 98 142 C98 141.34 98 140.68 98 140 C98.99 139.67 99.98 139.34 101 139 C102.5975028 137.0494579 104.02809904 135.14177613 105.4375 133.0625 C106.03691406 132.18549438 106.03691406 132.18549438 106.6484375 131.29077148 C114.51572756 119.46565415 116.73638207 106.95554853 114 93 C113.02450239 90.18137797 113.02450239 90.18137797 112 88 C111.34 88 110.68 88 110 88 C109.9175 87.401875 109.835 86.80375 109.75 86.1875 C108.78423221 83.37067727 107.51131433 82.52200868 105 81 C104.34 81 103.68 81 103 81 C103 80.34 103 79.68 103 79 C101.02 78.34 99.04 77.68 97 77 C97 76.34 97 75.68 97 75 C81.1459653 71.35750634 65.42667131 68.85934735 49.23291016 67.30957031 C47 67 47 67 45 66 C43.08581552 65.84146325 41.16822391 65.72325049 39.25 65.625 C28.14809162 64.82585931 16.14462977 63.51441133 7.5625 55.8125 C4.23395713 49.82112283 4.96114028 42.66786307 5.21899414 35.99462891 C5.59640525 24.66441233 4.75937357 16.38516186 -3.12109375 7.6484375 C-11.81706103 -0.64061277 -21.30245644 -3.88999869 -33.25 -4.25 C-43.8528334 -3.9298434 -53.72919213 -2.10675678 -63.72094727 1.32299805 Z M-200 205 C-199 207 -199 207 -199 207 Z M-189 206 C-188.67 206.66 -188.34 207.32 -188 208 C-187.67 207.34 -187.34 206.68 -187 206 C-187.66 206 -188.32 206 -189 206 Z " fill="#DADADA" transform="translate(339,87)"/>
<path d="M0 0 C1.11632812 -0.02449219 2.23265625 -0.04898438 3.3828125 -0.07421875 C14.27569569 -0.11230575 22.78756739 3.37103923 32.3125 8.3125 C33.00093994 8.65732422 33.68937988 9.00214844 34.39868164 9.35742188 C37.3037538 10.81832057 40.12697168 12.29933214 42.8984375 14.00390625 C50.29771989 18.43589962 58.88058477 19.07632991 67.25 17.375 C71.40669398 15.88528946 75.12005037 13.69594176 78.87890625 11.40625 C82.48718988 9.23208142 86.04963592 7.71282242 89.98046875 6.24609375 C92.35934601 5.33303071 94.6339444 4.27539769 96.9375 3.1875 C100.75376239 1.45592187 104.08372598 0.72957651 108.25 0.375 C108.58 1.035 108.91 1.695 109.25 2.375 C108.59 2.375 107.93 2.375 107.25 2.375 C106.92 4.685 106.59 6.995 106.25 9.375 C105.23679687 9.77332031 104.22359375 10.17164062 103.1796875 10.58203125 C101.82806929 11.11704679 100.47650991 11.65221096 99.125 12.1875 C98.12726563 12.57905273 98.12726563 12.57905273 97.109375 12.97851562 C91.90454417 15.04513963 86.97042516 17.42950319 82.05859375 20.12890625 C69.79442947 26.70863749 59.03175984 28.67036326 45.25 25.375 C40.88158832 23.70694033 36.77098318 21.65570447 32.625 19.5 C15.78091942 10.93203327 3.99766614 6.18363999 -14.75 11.375 C-17.7514296 12.5834609 -20.61190366 13.89294983 -23.48046875 15.38671875 C-25.75 16.375 -25.75 16.375 -29.75 16.375 C-30.245 17.86 -30.245 17.86 -30.75 19.375 C-31.74 19.375 -32.73 19.375 -33.75 19.375 C-33.75 20.035 -33.75 20.695 -33.75 21.375 C-35.4 22.035 -37.05 22.695 -38.75 23.375 C-38.75 24.035 -38.75 24.695 -38.75 25.375 C-39.41 25.375 -40.07 25.375 -40.75 25.375 C-41.02972656 25.94734375 -41.30945313 26.5196875 -41.59765625 27.109375 C-42.72599794 29.32780952 -43.94325507 31.46985924 -45.1875 33.625 C-50.50853866 43.2028696 -53.14859851 53.15641117 -53.125 64.125 C-53.12258301 65.33349609 -53.12258301 65.33349609 -53.12011719 66.56640625 C-52.86973815 79.35046514 -50.45258728 92.60500407 -45.484375 104.4140625 C-44.75 106.375 -44.75 106.375 -44.75 109.375 C-44.09 109.375 -43.43 109.375 -42.75 109.375 C-41.97076172 110.76912109 -41.97076172 110.76912109 -41.17578125 112.19140625 C-36.99225785 119.81361792 -36.99225785 119.81361792 -32.125 127 C-28.60326395 131.69957419 -26.2986686 137.11074747 -23.75 142.375 C-22.66883292 144.5219256 -21.58556016 146.66779234 -20.5 148.8125 C-15.3841387 158.92045177 -11.52091991 170.90358587 -12.75 182.375 C-13.5785975 184.85126839 -14.57693168 187.02886336 -15.75 189.375 C-14.76 189.705 -13.77 190.035 -12.75 190.375 C-12.9034035 193.05956134 -13.18757685 194.8244618 -15.14794922 196.7434082 C-16.68196615 197.9539388 -18.21598307 199.1644694 -19.75 200.375 C-19.7593457 199.75157715 -19.76869141 199.1281543 -19.77832031 198.48583984 C-20.00915004 186.20434053 -20.36916234 174.96782891 -24.75 163.375 C-25.08773437 162.41335937 -25.42546875 161.45171875 -25.7734375 160.4609375 C-29.72655948 150.05946051 -35.68255139 140.16011359 -42.05859375 131.0546875 C-43.75 128.375 -43.75 128.375 -43.75 125.375 C-44.41 125.375 -45.07 125.375 -45.75 125.375 C-62.65300519 102.52372319 -65.22989767 72.73675636 -61.75 45.375 C-59.57366036 34.71588199 -53.38295093 23.94718199 -44.75 17.375 C-44.0075 16.570625 -43.265 15.76625 -42.5 14.9375 C-31.02470096 4.24460772 -15.22001712 0.01733487 0 0 Z " fill="#E0E0E0" transform="translate(156.75,83.625)"/>
<path d="M0 0 C2.37109375 2.12890625 2.37109375 2.12890625 4 4 C4 4.66 4 5.32 4 6 C4.66 6 5.32 6 6 6 C6.79807198 7.68448018 7.58812301 9.37276127 8.375 11.0625 C8.81585938 12.00222656 9.25671875 12.94195312 9.7109375 13.91015625 C12.18196897 19.83314382 13.26154642 24.95315605 13.1875 31.375 C13.17332031 32.67824219 13.15914063 33.98148438 13.14453125 35.32421875 C13.02643962 38.3275762 12.78424957 41.2142772 12.375 44.1875 C11.94909532 48.49895285 11.94909532 48.49895285 14 52 C17.51252644 54.43166021 20.51674372 55.52967045 24.703125 56.28125 C25.7653125 56.48363281 26.8275 56.68601562 27.921875 56.89453125 C30.15575113 57.3009289 32.39013616 57.70453832 34.625 58.10546875 C35.68203125 58.30785156 36.7390625 58.51023437 37.828125 58.71875 C38.7965332 58.89341797 39.76494141 59.06808594 40.76269531 59.24804688 C41.50100586 59.49619141 42.23931641 59.74433594 43 60 C43.33 60.99 43.66 61.98 44 63 C44.66 63 45.32 63 46 63 C46 62.34 46 61.68 46 61 C61.91437937 61.75030573 61.91437937 61.75030573 69.73046875 63.5390625 C72.06448017 64.0130958 74.31281147 64.21176445 76.6875 64.375 C90.50691728 65.65698997 104.83638371 70.10272657 114 81 C114 81.66 114 82.32 114 83 C114.66 83 115.32 83 116 83 C116.33 85.31 116.66 87.62 117 90 C117.99 90.33 118.98 90.66 120 91 C123.64063811 107.1553316 120.64886613 120.30104389 112.10693359 134.31103516 C109.5306104 138.24200204 106.55742028 141.91857257 103 145 C102.34 145 101.68 145 101 145 C100.77699219 145.56332031 100.55398438 146.12664062 100.32421875 146.70703125 C95.04616686 155.84631283 82.73398343 161.94287826 73.78271484 166.98339844 C72.53223451 167.69649076 71.29378147 168.43089488 70.06494141 169.18066406 C68.41043316 170.17875717 66.70805618 171.09660005 65 172 C64.34 171.67 63.68 171.34 63 171 C63.66 169.35 64.32 167.7 65 166 C64.01 166 63.02 166 62 166 C61.67 166.66 61.34 167.32 61 168 C60.34 167.34 59.68 166.68 59 166 C59.90621094 165.56429687 60.81242188 165.12859375 61.74609375 164.6796875 C68.22943013 161.52223584 74.38990325 158.34353165 80.23046875 154.06640625 C82 153 82 153 85 153 C85 152.34 85 151.68 85 151 C86.828125 149.34375 86.828125 149.34375 89.25 147.5 C90.03890625 146.8915625 90.8278125 146.283125 91.640625 145.65625 C93.71137679 144.20260967 95.7058932 143.05234257 98 142 C98 141.34 98 140.68 98 140 C99.31302489 138.64666294 100.65013479 137.31659389 102 136 C110.89571207 124.88035991 114.56204229 114.16346567 114 100 C113.53518653 95.94948261 112.84576946 91.98719888 112 88 C111.34 88 110.68 88 110 88 C109.9175 87.38125 109.835 86.7625 109.75 86.125 C109.19416524 83.83911206 109.19416524 83.83911206 107.0625 82.8125 C106.381875 82.544375 105.70125 82.27625 105 82 C104.34 81.67 103.68 81.34 103 81 C103 80.34 103 79.68 103 79 C100.03 78.01 100.03 78.01 97 77 C97 76.34 97 75.68 97 75 C95.824375 74.896875 94.64875 74.79375 93.4375 74.6875 C89.40562301 74.24709497 85.52365052 73.49065189 81.5625 72.625 C72.99551597 70.83802174 64.35815296 69.92116297 55.66040039 69.00244141 C54.02445923 68.82720947 54.02445923 68.82720947 52.35546875 68.6484375 C50.88049927 68.49640869 50.88049927 68.49640869 49.37573242 68.34130859 C47 68 47 68 45 67 C43.08581552 66.84146325 41.16822391 66.72325049 39.25 66.625 C27.69774142 65.79344207 15.8609768 64.36217026 7.0625 56.3125 C3.21082132 50.12647061 3.94540624 43.08550394 4.21875 35.99438477 C4.59104941 24.84770155 3.81631531 16.5224112 -3.8984375 7.87109375 C-12.20838544 0.00456201 -21.93827608 -2.90915709 -33.25 -3.25 C-43.83749683 -2.93030649 -53.70082608 -1.16712946 -63.63305664 2.41088867 C-67.48560222 3.75165546 -70.07160014 4.24173559 -74 3 C-74.93423645 -0.01031744 -75.04449911 -0.86650268 -74 -4 C-51.57319993 -15.21340004 -20.11732637 -14.74138824 0 0 Z " fill="#D9D9D9" transform="translate(339,87)"/>
<path d="M0 0 C0.20586211 5.58115045 0.0613477 10.49392018 -1.49609375 15.86328125 C-2.3060057 19.29755907 -2.45008432 22.77393769 -2.65625 26.2890625 C-3 29 -3 29 -3.99389648 31.64038086 C-5.18347598 35.61266999 -5.37749274 39.35439619 -5.44140625 43.46484375 C-5.46607468 44.69192802 -5.46607468 44.69192802 -5.49124146 45.94380188 C-5.5331519 48.60853719 -5.55186868 51.27246286 -5.5625 53.9375 C-5.56778717 54.84761841 -5.57307434 55.75773682 -5.57852173 56.69543457 C-5.60646793 73.13212841 -3.30630041 87.9023675 1.10083008 103.70825195 C3.17893527 111.31593382 4.96681079 119.01886889 6.1875 126.8125 C6.34605469 127.80894531 6.50460938 128.80539063 6.66796875 129.83203125 C6.77753906 130.54746094 6.88710937 131.26289063 7 132 C6.34 132 5.68 132 5 132 C5 131.34 5 130.68 5 130 C4.01 130.33 3.02 130.66 2 131 C-1.63235639 127.90356505 -2.64832797 125.66178374 -3.5 121 C-3.73589844 119.76894531 -3.97179687 118.53789062 -4.21484375 117.26953125 C-4.33843262 116.59229004 -4.46202148 115.91504883 -4.58935547 115.21728516 C-5.20226944 111.90784121 -5.87086921 108.610002 -6.53515625 105.31054688 C-6.87796106 103.60541033 -7.21796117 101.89970669 -7.5546875 100.19335938 C-8.33957072 96.22108456 -9.15643772 92.26168451 -10.05078125 88.3125 C-12.47472197 77.49990435 -13.30235633 67.05280379 -13 56 C-13.58007812 55.91363281 -14.16015625 55.82726562 -14.7578125 55.73828125 C-21.05003807 53.66645088 -25.28808776 45.95837222 -28.3125 40.4375 C-32.60359655 31.23221617 -35.51452641 20.15776796 -32.81640625 10.12890625 C-31.54556133 6.81498051 -29.93886524 3.9729267 -28 1 C-27.01 1.33 -26.02 1.66 -25 2 C-25.144375 3.27875 -25.28875 4.5575 -25.4375 5.875 C-25.56898438 7.11830078 -25.56898438 7.11830078 -25.703125 8.38671875 C-25.89082579 10.03897968 -26.10610715 11.68854315 -26.359375 13.33203125 C-27.62402323 22.41039891 -27.28104391 32.23053456 -22.125 40.0625 C-21.11412808 41.3988621 -20.07094518 42.71127888 -19 44 C-17.66519251 45.66548627 -16.33170324 47.33203056 -15 49 C-14.97083496 48.13947021 -14.94166992 47.27894043 -14.91162109 46.39233398 C-13.58928697 11.50000162 -13.58928697 11.50000162 -5.55859375 1.140625 C-4 0 -4 0 0 0 Z " fill="#E1E1E1" transform="translate(165,119)"/>
<path d="M0 0 C0.0625 2.5625 0.0625 2.5625 -1 6 C-3.73450024 8.72255919 -6.79464592 10.86463462 -10 13 C-10.58201172 13.39606445 -11.16402344 13.79212891 -11.76367188 14.20019531 C-16.74276047 17.47408258 -21.76363389 19.66011717 -27.375 21.625 C-28.21063477 21.92494873 -29.04626953 22.22489746 -29.90722656 22.53393555 C-35.55293522 24.54248383 -41.22080858 26.41174704 -47 28 C-48.48113281 28.48146484 -48.48113281 28.48146484 -49.9921875 28.97265625 C-55.34003706 30.49908123 -60.86553319 30.98829275 -66.375 31.625 C-67.46039063 31.7590625 -68.54578125 31.893125 -69.6640625 32.03125 C-75.82469416 32.76040689 -81.79736739 33.14363991 -88 33 C-88 31.68 -88 30.36 -88 29 C-88.66 28.67 -89.32 28.34 -90 28 C-90 27.01 -90 26.02 -90 25 C-89.07767578 24.87431641 -89.07767578 24.87431641 -88.13671875 24.74609375 C-85.88586787 24.19776613 -85.88586787 24.19776613 -84.83203125 22.28515625 C-84.49558594 21.55167969 -84.15914063 20.81820312 -83.8125 20.0625 C-79.90279794 12.50856947 -73.77442589 4.79681265 -66 1 C-63.53134752 1.20572104 -62.20126168 1.89936916 -60 3 C-60 3.99 -60 4.98 -60 6 C-60.73605469 6.37511719 -61.47210938 6.75023437 -62.23046875 7.13671875 C-70.57404052 11.51240962 -75.66957249 15.06043143 -79 24 C-78.42894531 23.87882812 -77.85789062 23.75765625 -77.26953125 23.6328125 C-72.51874036 22.65093203 -67.81439396 21.84950522 -63 21.25 C-55.87034373 20.18599724 -49.32592523 17.94177259 -42.55078125 15.56640625 C-39.67036187 14.55707022 -36.78878674 13.62055839 -33.85546875 12.77734375 C-25.11810539 10.26014084 -17.27632164 6.91618081 -9.23046875 2.671875 C-5.88217181 0.93901999 -3.77020207 0 0 0 Z " fill="#DFDFDF" transform="translate(398,212)"/>
<path d="M0 0 C7.55683442 2.07812947 13.88523607 6.08605421 19 12 C19 12.66 19 13.32 19 14 C19.66 14 20.32 14 21 14 C21.495 17.465 21.495 17.465 22 21 C22.99 21.33 23.98 21.66 25 22 C28.64063811 38.1553316 25.64886613 51.30104389 17.10693359 65.31103516 C14.5306104 69.24200204 11.55742028 72.91857257 8 76 C7.34 76 6.68 76 6 76 C5.66548828 76.84498047 5.66548828 76.84498047 5.32421875 77.70703125 C0.04616686 86.84631283 -12.26601657 92.94287826 -21.21728516 97.98339844 C-22.46776549 98.69649076 -23.70621853 99.43089488 -24.93505859 100.18066406 C-26.58956684 101.17875717 -28.29194382 102.09660005 -30 103 C-30.66 102.67 -31.32 102.34 -32 102 C-31.34 100.35 -30.68 98.7 -30 97 C-30.99 97 -31.98 97 -33 97 C-33.495 97.99 -33.495 97.99 -34 99 C-34.66 98.34 -35.32 97.68 -36 97 C-35.09378906 96.56429687 -34.18757813 96.12859375 -33.25390625 95.6796875 C-26.77056987 92.52223584 -20.61009675 89.34353165 -14.76953125 85.06640625 C-13 84 -13 84 -10 84 C-10 83.34 -10 82.68 -10 82 C-8.171875 80.34375 -8.171875 80.34375 -5.75 78.5 C-4.96109375 77.8915625 -4.1721875 77.283125 -3.359375 76.65625 C-1.28862321 75.20260967 0.7058932 74.05234257 3 73 C3 72.34 3 71.68 3 71 C4.31302489 69.64666294 5.65013479 68.31659389 7 67 C15.89571207 55.88035991 19.56204229 45.16346567 19 31 C18.53518653 26.94948261 17.84576946 22.98719888 17 19 C16.34 19 15.68 19 15 19 C14.9175 18.38125 14.835 17.7625 14.75 17.125 C14.19416524 14.83911206 14.19416524 14.83911206 12.0625 13.8125 C11.381875 13.544375 10.70125 13.27625 10 13 C9.34 12.67 8.68 12.34 8 12 C8 11.34 8 10.68 8 10 C6.02 9.34 4.04 8.68 2 8 C2.33 6.35 2.66 4.7 3 3 C2.34 3 1.68 3 1 3 C0.505 1.515 0.505 1.515 0 0 Z " fill="#CFCFCF" transform="translate(434,156)"/>
<path d="M0 0 C-0.33 2.64 -0.66 5.28 -1 8 C-3.31 8.66 -5.62 9.32 -8 10 C-8 10.33 -8 10.66 -8 11 C1.27593001 12.73164938 10.14081486 13.22674491 19.5625 13.0625 C28.44862341 12.93615701 37.1550929 13.07706204 46 14 C46 14.99 46 15.98 46 17 C41.77578231 19.03058175 38.24836298 19.28261004 33.5859375 19.3359375 C32.50767952 19.34843788 32.50767952 19.34843788 31.40763855 19.3611908 C29.0632118 19.38069167 26.7194953 19.38062201 24.375 19.375 C23.57166229 19.37478851 22.76832458 19.37457703 21.94064331 19.37435913 C-0.31357945 19.31602456 -21.49082285 15.62512243 -43 10 C-43.33 8.02 -43.66 6.04 -44 4 C-40.62142866 1.74761911 -39.30669382 1.71899332 -35.3359375 1.62109375 C-34.21316406 1.58693359 -33.09039062 1.55277344 -31.93359375 1.51757812 C-30.17208984 1.47793945 -30.17208984 1.47793945 -28.375 1.4375 C-18.94121299 1.18924245 -9.39810172 -0.24097697 0 0 Z " fill="#E4E4E4" transform="translate(306,238)"/>
<path d="M0 0 C2.34504826 0.01005067 4.69010069 0.01917282 7.03515625 0.02734375 C12.73186316 0.04918991 18.42841166 0.08250181 24.125 0.125 C20.375 2.125 20.375 2.125 18.125 2.125 C18.125 2.785 18.125 3.445 18.125 4.125 C16.805 4.125 15.485 4.125 14.125 4.125 C14.125 5.115 14.125 6.105 14.125 7.125 C13.11300537 7.14481934 12.10101074 7.16463867 11.05834961 7.18505859 C7.22805901 7.26234084 3.3980894 7.35084459 -0.43188477 7.44238281 C-2.07537402 7.48017522 -3.71893213 7.5151047 -5.36254883 7.546875 C-19.28843764 7.8191808 -32.71989065 8.67913888 -46.19140625 12.5390625 C-49.15348328 13.18580421 -51.85223234 13.22265182 -54.875 13.125 C-54.875 9.44244332 -54.08427036 8.04086002 -51.875 5.125 C-48.06028147 3.43571241 -43.95889046 2.91847712 -39.875 2.125 C-38.94905029 1.93977783 -38.02310059 1.75455566 -37.0690918 1.5637207 C-24.78846308 -0.53961352 -12.41680212 -0.09296377 0 0 Z " fill="#E3E3E3" transform="translate(245.875,267.875)"/>
<path d="M0 0 C0 3 0 3 -1 5 C-0.34 5.66 0.32 6.32 1 7 C0.18917969 7.23074219 -0.62164062 7.46148437 -1.45703125 7.69921875 C-8.96730705 9.91120918 -15.99794443 12.49897221 -23 16 C-23.88171875 16.44085938 -24.7634375 16.88171875 -25.671875 17.3359375 C-31.68346204 20.48072725 -37.21427539 24.09342586 -42.67333984 28.10449219 C-46.68604144 31 -46.68604144 31 -50 31 C-50 30.34 -50 29.68 -50 29 C-49.34 28.67 -48.68 28.34 -48 28 C-48.33 27.34 -48.66 26.68 -49 26 C-48.34 26 -47.68 26 -47 26 C-47 25.34 -47 24.68 -47 24 C-46.34 24 -45.68 24 -45 24 C-44.95875 23.38125 -44.9175 22.7625 -44.875 22.125 C-44.58625 21.42375 -44.2975 20.7225 -44 20 C-40.9375 18.75 -40.9375 18.75 -38 18 C-38 17.34 -38 16.68 -38 16 C-36.68 15.67 -35.36 15.34 -34 15 C-34 14.34 -34 13.68 -34 13 C-24.17699421 7.37304196 -14.45636959 1.83319052 -3 1 C-2.01 0.67 -1.02 0.34 0 0 Z " fill="#D3D3D3" transform="translate(192,275)"/>
<path d="M0 0 C0.66 0 1.32 0 2 0 C2.33 1.65 2.66 3.3 3 5 C4.485 5.495 4.485 5.495 6 6 C5.34 6 4.68 6 4 6 C3.731875 6.5775 3.46375 7.155 3.1875 7.75 C1.97070811 10.05550043 0.69666121 12.02056192 -1 14 C-1.66 14 -2.32 14 -3 14 C-3.27255615 14.58193115 -3.5451123 15.1638623 -3.82592773 15.76342773 C-4.98399626 17.96951336 -6.26576644 19.81430788 -7.78515625 21.78515625 C-8.58083008 22.82833008 -8.58083008 22.82833008 -9.39257812 23.89257812 C-10.50920041 25.34353411 -11.62639146 26.79405256 -12.74414062 28.24414062 C-13.27330078 28.93830078 -13.80246094 29.63246094 -14.34765625 30.34765625 C-14.83242432 30.97679932 -15.31719238 31.60594238 -15.81665039 32.25415039 C-17.18454954 34.10279471 -17.18454954 34.10279471 -18 37 C-18.99 36.67 -19.98 36.34 -21 36 C-21.33 35.34 -21.66 34.68 -22 34 C-23.32 35.32 -24.64 36.64 -26 38 C-26.66 37.67 -27.32 37.34 -28 37 C-27.34773437 36.09378906 -26.69546875 35.18757813 -26.0234375 34.25390625 C-21.23005646 27.57839396 -16.48374983 20.88966438 -12 14 C-10.68 14.33 -9.36 14.66 -8 15 C-8.23332031 14.43539062 -8.46664062 13.87078125 -8.70703125 13.2890625 C-9 11 -9 11 -7.63671875 8.7109375 C-6.99347656 7.94007813 -6.35023438 7.16921875 -5.6875 6.375 C-5.05199219 5.59898437 -4.41648438 4.82296875 -3.76171875 4.0234375 C-2.5561043 2.63871846 -1.29825903 1.29825903 0 0 Z " fill="#CECECE" transform="translate(180,236)"/>
<path d="M0 0 C0 1.32 0 2.64 0 4 C-3.70634116 6.27935193 -7.5730878 6.6721389 -11.8125 7.125 C-12.58062012 7.20991699 -13.34874023 7.29483398 -14.14013672 7.38232422 C-24.39921314 8.39217983 -34.70503061 8.17897112 -45 8 C-45 7.34 -45 6.68 -45 6 C-51.93 6 -58.86 6 -66 6 C-66.33 5.34 -66.66 4.68 -67 4 C-66.00782471 3.97494385 -65.01564941 3.9498877 -63.9934082 3.92407227 C-60.249013 3.82862134 -56.50474533 3.72875956 -52.76049805 3.62768555 C-51.15180481 3.5848491 -49.54308087 3.54314801 -47.93432617 3.50268555 C-31.71805299 3.75355258 -31.71805299 3.75355258 -16 1 C-14.2125453 0.77587642 -12.4197797 0.59239195 -10.625 0.4375 C-9.68914062 0.35371094 -8.75328125 0.26992187 -7.7890625 0.18359375 C-5.18226956 0.01199814 -2.6113921 -0.0332359 0 0 Z " fill="#E5E5E5" transform="translate(325,176)"/>
<path d="M0 0 C0.99 0.33 1.98 0.66 3 1 C2.855625 2.27875 2.71125 3.5575 2.5625 4.875 C2.43101562 6.11830078 2.43101562 6.11830078 2.296875 7.38671875 C2.10917421 9.03897968 1.89389285 10.68854315 1.640625 12.33203125 C0.00323841 24.08612782 1.95824652 34.38955658 9 44 C7.66666667 45.33333333 6.33333333 46.66666667 5 48 C-1.76120417 36.8223323 -7.66285905 24.91215111 -5.4375 11.4375 C-4.29122498 7.17681738 -2.40254551 3.68390312 0 0 Z " fill="#D1D1D1" transform="translate(137,120)"/>
<path d="M0 0 C0.495 2.97 0.495 2.97 1 6 C-3.28594726 6.57549011 -7.57264343 7.14493273 -11.86010742 7.70898438 C-13.31605256 7.90136733 -14.77178728 8.09535022 -16.22729492 8.29101562 C-18.32937078 8.57330879 -20.43215681 8.84968213 -22.53515625 9.125 C-23.797229 9.29257813 -25.05930176 9.46015625 -26.35961914 9.6328125 C-29.95890352 9.9958548 -33.38692693 10.20555166 -37 10 C-37.66 9.34 -38.32 8.68 -39 8 C-37.54582475 5.0916495 -35.29686868 4.75781028 -32.359375 3.7265625 C-21.93514709 0.51645258 -10.86407104 -0.25265281 0 0 Z " fill="#DFDFDF" transform="translate(259,242)"/>
<path d="M0 0 C1.27681641 -0.00128906 2.55363281 -0.00257813 3.86914062 -0.00390625 C5.18720703 -0.00003906 6.50527344 0.00382813 7.86328125 0.0078125 C9.16201172 0.00394531 10.46074219 0.00007812 11.79882812 -0.00390625 C19.64254566 0.00397292 27.37246594 0.33120833 35.17578125 1.1328125 C35.17578125 2.1228125 35.17578125 3.1128125 35.17578125 4.1328125 C30.75302578 6.34227893 26.64895196 6.39367301 21.8125 6.328125 C21.02051712 6.3252951 20.22853424 6.32246521 19.41255188 6.31954956 C16.89597126 6.30840113 14.37975336 6.28330672 11.86328125 6.2578125 C10.15169787 6.24777579 8.44010888 6.23865114 6.72851562 6.23046875 C2.54413219 6.20847931 -1.63998189 6.17398658 -5.82421875 6.1328125 C-5.82421875 5.4728125 -5.82421875 4.8128125 -5.82421875 4.1328125 C-8.79421875 3.8028125 -11.76421875 3.4728125 -14.82421875 3.1328125 C-14.49421875 2.4728125 -14.16421875 1.8128125 -13.82421875 1.1328125 C-9.20175909 0.22379474 -4.70108007 0.00463585 0 0 Z " fill="#DBDBDB" transform="translate(316.82421875,250.8671875)"/>
<path d="M0 0 C0.99 0 1.98 0 3 0 C3.01981934 0.78648926 3.03963867 1.57297852 3.06005859 2.38330078 C3.15561233 5.96419042 3.26516936 9.54452098 3.375 13.125 C3.4059375 14.3625 3.436875 15.6 3.46875 16.875 C3.50742188 18.07382813 3.54609375 19.27265625 3.5859375 20.5078125 C3.6173584 21.60754395 3.6487793 22.70727539 3.68115234 23.84033203 C4.01436543 27.14235634 4.83646571 29.90132447 6 33 C4.68 33.66 3.36 34.32 2 35 C1.34634601 33.46163292 0.70246397 31.91911234 0.0625 30.375 C-0.29714844 29.51648438 -0.65679687 28.65796875 -1.02734375 27.7734375 C-3.52742775 20.64468391 -4.58335398 11.12748934 -2.328125 3.82421875 C-1.5 2.1875 -1.5 2.1875 0 0 Z " fill="#C9C9C9" transform="translate(213,140)"/>
<path d="M0 0 C7.55683442 2.07812947 13.88523607 6.08605421 19 12 C19 12.66 19 13.32 19 14 C19.66 14 20.32 14 21 14 C21.12375 15.134375 21.2475 16.26875 21.375 17.4375 C21.58125 18.613125 21.7875 19.78875 22 21 C22.66 21.33 23.32 21.66 24 22 C23.01 22.33 22.02 22.66 21 23 C20.67 25.64 20.34 28.28 20 31 C19.67 31 19.34 31 19 31 C18.855625 29.948125 18.71125 28.89625 18.5625 27.8125 C18.12473034 24.84539451 17.62195134 21.93205634 17 19 C16.34 19 15.68 19 15 19 C14.9175 18.38125 14.835 17.7625 14.75 17.125 C14.19416524 14.83911206 14.19416524 14.83911206 12.0625 13.8125 C11.381875 13.544375 10.70125 13.27625 10 13 C9.34 12.67 8.68 12.34 8 12 C8 11.34 8 10.68 8 10 C6.02 9.34 4.04 8.68 2 8 C2.33 6.35 2.66 4.7 3 3 C2.34 3 1.68 3 1 3 C0.67 2.01 0.34 1.02 0 0 Z " fill="#C4C4C4" transform="translate(434,156)"/>
<path d="M0 0 C0.58007812 0.2165625 1.16015625 0.433125 1.7578125 0.65625 C1.0978125 1.23375 0.4378125 1.81125 -0.2421875 2.40625 C-2.68509673 4.65278977 -2.68509673 4.65278977 -2.2421875 8.65625 C-4.28009842 10.25876156 -6.13819891 11.50685 -8.3671875 12.78125 C-8.93695313 13.12800781 -9.50671875 13.47476563 -10.09375 13.83203125 C-13.69440994 15.96787726 -17.23230886 17.47400614 -21.2421875 18.65625 C-20.5821875 16.67625 -19.9221875 14.69625 -19.2421875 12.65625 C-20.2321875 12.65625 -21.2221875 12.65625 -22.2421875 12.65625 C-22.5721875 13.31625 -22.9021875 13.97625 -23.2421875 14.65625 C-23.9021875 13.99625 -24.5621875 13.33625 -25.2421875 12.65625 C-23.88287109 12.00269531 -23.88287109 12.00269531 -22.49609375 11.3359375 C-16.00215605 8.17199535 -9.88189963 5.02739233 -4.109375 0.625 C-2.2421875 -0.34375 -2.2421875 -0.34375 0 0 Z " fill="#C4C4C4" transform="translate(423.2421875,240.34375)"/>
<path d="M0 0 C9.7168524 1.08220868 19.37435149 2.25662628 29 4 C29 4.33 29 4.66 29 5 C26.69 5.33 24.38 5.66 22 6 C24.64 6.66 27.28 7.32 30 8 C30 8.33 30 8.66 30 9 C18.25302173 8.16874269 6.35989164 7.24568333 -5 4 C-5 3.67 -5 3.34 -5 3 C-3.02 3 -1.04 3 1 3 C0.67 2.01 0.34 1.02 0 0 Z " fill="#B5B5B5" transform="translate(281,247)"/>
<path d="M0 0 C0.33 0 0.66 0 1 0 C1.07476562 0.89460937 1.14953125 1.78921875 1.2265625 2.7109375 C2.14571476 11.16353376 3.96323212 17.12592056 9 24 C7.66666667 25.33333333 6.33333333 26.66666667 5 28 C-4 12.43963554 -4 12.43963554 -4 4 C-3.01 4 -2.02 4 -1 4 C-0.67 2.68 -0.34 1.36 0 0 Z " fill="#C1C1C1" transform="translate(137,140)"/>
<path d="M0 0 C1.32 0.66 2.64 1.32 4 2 C3.53411505 7.70709064 2.06242216 11.15939723 -1 16 C-1.99 15.67 -2.98 15.34 -4 15 C-4.33 14.34 -4.66 13.68 -5 13 C-6.32 14.32 -7.64 15.64 -9 17 C-9.66 16.67 -10.32 16.34 -11 16 C-10.28972656 15.01257813 -9.57945312 14.02515625 -8.84765625 13.0078125 C-7.91919608 11.71359529 -6.99081475 10.41932152 -6.0625 9.125 C-5.59392578 8.47402344 -5.12535156 7.82304687 -4.64257812 7.15234375 C-2.12854419 3.69602161 -2.12854419 3.69602161 0 0 Z " fill="#D0D0D0" transform="translate(163,257)"/>
<path d="M0 0 C0.33 1.65 0.66 3.3 1 5 C-2.63 7.97 -6.26 10.94 -10 14 C-10.99 12.68 -11.98 11.36 -13 10 C-12.34 9.38125 -11.68 8.7625 -11 8.125 C-8.7715451 6.24362573 -8.7715451 6.24362573 -9 4 C-3.70588235 0 -3.70588235 0 0 0 Z " fill="#D5D5D5" transform="translate(433,234)"/>
<path d="M0 0 C20.295 0.495 20.295 0.495 41 1 C41 1.33 41 1.66 41 2 C29.78 2.33 18.56 2.66 7 3 C13.93 3.33 20.86 3.66 28 4 C28 4.33 28 4.66 28 5 C24.47923768 5.05855176 20.9586024 5.0937806 17.4375 5.125 C15.9515332 5.15013672 15.9515332 5.15013672 14.43554688 5.17578125 C8.87271509 5.21274359 4.25156925 4.87082551 -1 3 C-0.67 2.01 -0.34 1.02 0 0 Z " fill="#8D8D8D" transform="translate(252,178)"/>
<path d="M0 0 C-0.33 2.64 -0.66 5.28 -1 8 C-7.07027358 10.1583195 -12.59370576 10.20852314 -19 10 C-19 9.67 -19 9.34 -19 9 C-15.7 9 -12.4 9 -9 9 C-8.855625 8.195625 -8.71125 7.39125 -8.5625 6.5625 C-8 4 -8 4 -7 3 C-9.64 2.67 -12.28 2.34 -15 2 C-15 1.67 -15 1.34 -15 1 C-9.9752761 0.37470103 -5.07471573 -0.13012092 0 0 Z " fill="#B2B2B2" transform="translate(306,238)"/>
<path d="M0 0 C1.25924644 0.58465013 2.50822148 1.19161074 3.75 1.8125 C3.75 2.8025 3.75 3.7925 3.75 4.8125 C2.36217515 5.6591034 0.96430603 6.48925339 -0.4375 7.3125 C-1.21480469 7.7765625 -1.99210937 8.240625 -2.79296875 8.71875 C-5.49103386 9.91979647 -7.3306982 10.01991043 -10.25 9.8125 C-9.33621331 5.79183858 -8.56831066 4.08237208 -5.375 1.375 C-2.25 -0.1875 -2.25 -0.1875 0 0 Z " fill="#E5E5E5" transform="translate(334.25,213.1875)"/>
<path d="M0 0 C0.99 0.33 1.98 0.66 3 1 C2.54625 1.37125 2.0925 1.7425 1.625 2.125 C-0.21993937 3.97408062 -0.21993937 3.97408062 -0.75 6.875 C-2.41246773 11.03116933 -5.03807295 13.00580064 -9 15 C-9.99 15 -10.98 15 -12 15 C-12 14.34 -12 13.68 -12 13 C-11.34 12.67 -10.68 12.34 -10 12 C-10.33 11.34 -10.66 10.68 -11 10 C-10.34 10 -9.68 10 -9 10 C-9 9.34 -9 8.68 -9 8 C-8.34 8 -7.68 8 -7 8 C-6.95875 7.38125 -6.9175 6.7625 -6.875 6.125 C-6.58625 5.42375 -6.2975 4.7225 -6 4 C-2.9375 2.75 -2.9375 2.75 0 2 C0 1.34 0 0.68 0 0 Z " fill="#BDBDBD" transform="translate(154,291)"/>
<path d="M0 0 C7.26153846 0.36923077 7.26153846 0.36923077 11 3.5625 C11.99 4.7690625 11.99 4.7690625 13 6 C12.67 6.66 12.34 7.32 12 8 C6.80790596 8.21192221 2.873261 7.5912689 -2 6 C-1.01 5.34 -0.02 4.68 1 4 C0.67 2.68 0.34 1.36 0 0 Z " fill="#D0D0D0" transform="translate(425,154)"/>
<path d="M0 0 C-0.99 0 -1.98 0 -3 0 C-2.33131686 3.11332248 -2.33131686 3.11332248 0.0625 4.1875 C0.701875 4.455625 1.34125 4.72375 2 5 C0.39935157 5.53154742 -1.20568874 6.04988353 -2.8125 6.5625 C-3.70582031 6.85253906 -4.59914062 7.14257812 -5.51953125 7.44140625 C-8 8 -8 8 -11 7 C-11 6.34 -11 5.68 -11 5 C-12.65 4.67 -14.3 4.34 -16 4 C-13.41588269 2.27725513 -11.45097344 1.31104478 -8.5625 0.3125 C-7.41974609 -0.09548828 -7.41974609 -0.09548828 -6.25390625 -0.51171875 C-3.78170279 -1.04729142 -2.37016716 -0.80445309 0 0 Z " fill="#B9B9B9" transform="translate(224,248)"/>
<path d="M0 0 C1.43410153 3.78819273 0.51009497 6.06521279 -0.9375 9.75 C-1.31777344 10.73484375 -1.69804687 11.7196875 -2.08984375 12.734375 C-2.39019531 13.48203125 -2.69054687 14.2296875 -3 15 C-3.66 14.01 -4.32 13.02 -5 12 C-5.99 12.99 -6.98 13.98 -8 15 C-7.77192509 13.20541055 -7.51677697 11.41424551 -7.25 9.625 C-7.11078125 8.62726563 -6.9715625 7.62953125 -6.828125 6.6015625 C-6 4 -6 4 -4.046875 2.7734375 C-3.37140625 2.51820313 -2.6959375 2.26296875 -2 2 C-1.34 1.34 -0.68 0.68 0 0 Z " fill="#CECECE" transform="translate(142,279)"/>
<path d="M0 0 C0.66 0 1.32 0 2 0 C2.33 1.65 2.66 3.3 3 5 C3.99 5.33 4.98 5.66 6 6 C5.875 8.1875 5.875 8.1875 5 11 C2.03 13.475 2.03 13.475 -1 16 C-0.67 10.72 -0.34 5.44 0 0 Z " fill="#E7E7E7" transform="translate(138,268)"/>
<path d="M0 0 C0.99 0.33 1.98 0.66 3 1 C2.34 1 1.68 1 1 1 C1.061875 1.721875 1.12375 2.44375 1.1875 3.1875 C0.95934909 6.60976367 0.13475313 8.33155859 -2 11 C-3.32 11 -4.64 11 -6 11 C-6 8.69 -6 6.38 -6 4 C-5.34 4 -4.68 4 -4 4 C-3.34 3.34 -2.68 2.68 -2 2 C-1.34 1.34 -0.68 0.68 0 0 Z " fill="#BABABA" transform="translate(108,371)"/>
<path d="M0 0 C0 1.32 0 2.64 0 4 C-3.13498292 5.85776765 -5.37471432 6.20140476 -9 6 C-7.68 5.67 -6.36 5.34 -5 5 C-5 4.34 -5 3.68 -5 3 C-8.63 2.67 -12.26 2.34 -16 2 C-16 1.67 -16 1.34 -16 1 C-14.27111445 0.83044205 -12.54187557 0.66448486 -10.8125 0.5 C-9.84957031 0.4071875 -8.88664062 0.314375 -7.89453125 0.21875 C-5.24812333 0.01875156 -2.65239135 -0.03879183 0 0 Z " fill="#C1C1C1" transform="translate(325,176)"/>
<path d="M0 0 C1.25924644 0.58465013 2.50822148 1.19161074 3.75 1.8125 C3.75 2.8025 3.75 3.7925 3.75 4.8125 C1.77 5.4725 -0.21 6.1325 -2.25 6.8125 C-1.92 5.8225 -1.59 4.8325 -1.25 3.8125 C-0.59 3.8125 0.07 3.8125 0.75 3.8125 C0.09 3.1525 -0.57 2.4925 -1.25 1.8125 C-1.6625 2.328125 -2.075 2.84375 -2.5 3.375 C-3.0775 3.849375 -3.655 4.32375 -4.25 4.8125 C-6.4375 4.5 -6.4375 4.5 -8.25 3.8125 C-2.85 -0.2375 -2.85 -0.2375 0 0 Z " fill="#989898" transform="translate(334.25,213.1875)"/>
<path d="M0 0 C-0.1875 2.375 -0.1875 2.375 -1 5 C-3.4375 6.1875 -3.4375 6.1875 -6 7 C-6.66 7.66 -7.32 8.32 -8 9 C-7.50233954 5.31731261 -6.93714041 3.34971233 -4 1 C-2 0 -2 0 0 0 Z " fill="#D9D9D9" transform="translate(459,203)"/>
<path d="M0 0 C0 3 0 3 -1 5 C-0.01 5.33 0.98 5.66 2 6 C-0.25 7.5625 -0.25 7.5625 -3 9 C-4.32 8.67 -5.64 8.34 -7 8 C-4.69 5.36 -2.38 2.72 0 0 Z " fill="#A2A2A2" transform="translate(325,218)"/>
<path d="M0 0 C1.32 1.65 2.64 3.3 4 5 C2.66666667 6.33333333 1.33333333 7.66666667 0 9 C-0.99 6.69 -1.98 4.38 -3 2 C-2.01 2 -1.02 2 0 2 C0 1.34 0 0.68 0 0 Z " fill="#B4B4B4" transform="translate(142,159)"/>
<path d="M0 0 C0.6875 1.75 0.6875 1.75 1 4 C-0.4375 6.25 -0.4375 6.25 -2 8 C-2.33 7.34 -2.66 6.68 -3 6 C-3.99 6.33 -4.98 6.66 -6 7 C-4.52307692 2.32307692 -4.52307692 2.32307692 -1.875 0.6875 C-1.25625 0.460625 -0.6375 0.23375 0 0 Z " fill="#C3C3C3" transform="translate(321,225)"/>
<path d="M0 0 C0.33 1.98 0.66 3.96 1 6 C-0.32 6 -1.64 6 -3 6 C-3.33 4.35 -3.66 2.7 -4 1 C-2 0 -2 0 0 0 Z " fill="#D4D4D4" transform="translate(141,155)"/>
<path d="M0 0 C1.32 0.33 2.64 0.66 4 1 C3.67 1.99 3.34 2.98 3 4 C-1.29 3.67 -5.58 3.34 -10 3 C-10 2.67 -10 2.34 -10 2 C-6.7 2 -3.4 2 0 2 C0 1.34 0 0.68 0 0 Z " fill="#929292" transform="translate(381,150)"/>
<path d="M0 0 C2.97 0 5.94 0 9 0 C5 2 5 2 3 2 C3 2.66 3 3.32 3 4 C1.68 3.67 0.36 3.34 -1 3 C-0.67 2.01 -0.34 1.02 0 0 Z " fill="#AFAFAF" transform="translate(261,268)"/>
<path d="M0 0 C2 0.25 2 0.25 4 1 C4.33 1.99 4.66 2.98 5 4 C3.35 4.66 1.7 5.32 0 6 C-0.38218767 4.34385343 -0.71395102 2.67542976 -1 1 C-0.67 0.67 -0.34 0.34 0 0 Z " fill="#D2D2D2" transform="translate(144,164)"/>
<path d="M0 0 C0.99 0.33 1.98 0.66 3 1 C1.84826645 3.46800047 0.95216435 5.04783565 -1 7 C-1 6.34 -1 5.68 -1 5 C-1.66 5 -2.32 5 -3 5 C-2.625 3.0625 -2.625 3.0625 -2 1 C-1.34 0.67 -0.68 0.34 0 0 Z " fill="#B6B6B6" transform="translate(131,317)"/>
<path d="M0 0 C1.98 0 3.96 0 6 0 C6 0.99 6 1.98 6 3 C4.35 3.33 2.7 3.66 1 4 C0.67 2.68 0.34 1.36 0 0 Z " fill="#C7C7C7" transform="translate(346,252)"/>
<path d="M0 0 C1.32 0.33 2.64 0.66 4 1 C4 1.66 4 2.32 4 3 C5.32 3.33 6.64 3.66 8 4 C6.02 4.33 4.04 4.66 2 5 C1.34 3.35 0.68 1.7 0 0 Z " fill="#B1B1B1" transform="translate(264,86)"/>
<path d="M0 0 C0.33 0.99 0.66 1.98 1 3 C-0.65 4.65 -2.3 6.3 -4 8 C-4.66 7.67 -5.32 7.34 -6 7 C-4.02 4.69 -2.04 2.38 0 0 Z " fill="#9C9C9C" transform="translate(179,237)"/>
<path d="M0 0 C2 3 2 3 3 6 C1.02 6.99 1.02 6.99 -1 8 C-0.67 5.36 -0.34 2.72 0 0 Z " fill="#BFBFBF" transform="translate(216,167)"/>
<path d="M0 0 C0.33 0 0.66 0 1 0 C1.33 2.31 1.66 4.62 2 7 C0.02 7.99 0.02 7.99 -2 9 C-2.33 7.68 -2.66 6.36 -3 5 C-2.01 5 -1.02 5 0 5 C0 3.35 0 1.7 0 0 Z " fill="#9C9C9C" transform="translate(138,148)"/>
<path d="M0 0 C0.99 0.99 1.98 1.98 3 3 C2.01 3.99 1.02 4.98 0 6 C-0.99 5.67 -1.98 5.34 -3 5 C-2.01 3.35 -1.02 1.7 0 0 Z " fill="#FAFAFA" transform="translate(157,269)"/>
<path d="M0 0 C0.33 0 0.66 0 1 0 C1.33 2.64 1.66 5.28 2 8 C1.34 8 0.68 8 0 8 C-0.33 8.99 -0.66 9.98 -1 11 C-2.41687119 6.74938644 -1.19320039 4.28148375 0 0 Z " fill="#7F7F7F" transform="translate(453,197)"/>
</svg>
